<svg id="Layer_1" data-name="Layer 1" xmlns="http://www.w3.org/2000/svg" viewBox="0 0 300 300"><defs><style>.cls-1{fill:#273457;}.cls-2{fill:#ecf2fa;}.cls-3{fill:#4a85c5;}.cls-4{fill:#ccebf9;}.cls-5{fill:#4473b9;}.cls-6{fill:#b9d5ea;}.cls-7{fill:#f1b01f;}.cls-8{fill:#f9be4d;}.cls-9{fill:#4bbd98;}.cls-10{fill:#2fb595;}</style></defs><title>Untitled-1</title><path class="cls-1" d="M279.87,112.13l-7.05-1.95c.07-.27,7.27-27.17-4.46-51.34-7.45-15.38-28-31.47-63.81-30.75l-.16-7.33c39.14-.9,62.12,17.46,70.56,34.88C287.91,82.36,280.21,110.93,279.87,112.13Z"/><path class="cls-2" d="M190.79,267H170.23V226.32H121.42V267H104.2c-6.51,0-12.62,4.53-12.62,11V288.7H200.06V278C200.06,271.53,197.3,267,190.79,267Z"/><path class="cls-1" d="M205.49,291.41H88.87V278c0-9.08,6.88-16.46,15.33-16.46h14.5V220.9h57v40.68h15.13c8.38,0,14.7,7.07,14.7,16.46ZM97,283.28H197.35V278c0-4-2.3-8.32-6.56-8.32H167.52V229H126.84v40.68H104.2C99.76,269.72,97,274,97,278Z"/><path class="cls-1" d="M232.61,291.41H64.46a4.07,4.07,0,0,1,0-8.13H232.61a4.07,4.07,0,1,1,0,8.13Z"/><path class="cls-1" d="M250.63,291h-7.21a3.66,3.66,0,1,1,0-7.32h7.21a3.66,3.66,0,1,1,0,7.32Z"/><path class="cls-3" d="M28.75,152.76c-.62-8.53-2.88-17.89-2.82-26.79a17.53,17.53,0,1,0,3.14,31.65C29,156,28.87,154.38,28.75,152.76Z"/><path class="cls-1" d="M20.2,163.71a21.19,21.19,0,1,1,6.92-41.2A3.66,3.66,0,0,1,29.59,126a106.18,106.18,0,0,0,1.5,15.6c.52,3.6,1.05,7.33,1.31,10.9.13,1.64.23,3.28.32,4.92a3.67,3.67,0,0,1-1.79,3.37A21.26,21.26,0,0,1,20.2,163.71Zm0-35.05a13.87,13.87,0,0,0,0,27.73,13.72,13.72,0,0,0,5.07-1c-.05-.8-.11-1.6-.17-2.39-.24-3.32-.74-6.75-1.26-10.39a134.24,134.24,0,0,1-1.52-13.82A13.76,13.76,0,0,0,20.2,128.66Z"/><path class="cls-3" d="M34.63,168a9.52,9.52,0,0,1-9.51,9.53H22.45A9.52,9.52,0,0,1,12.94,168V119.23a9.51,9.51,0,0,1,9.51-9.52h2.67a9.51,9.51,0,0,1,9.51,9.52Z"/><path class="cls-1" d="M26.47,180.22H23.81a13.6,13.6,0,0,1-13.58-13.59V117.88a13.6,13.6,0,0,1,13.58-13.6h2.66a13.61,13.61,0,0,1,13.59,13.6v48.75A13.61,13.61,0,0,1,26.47,180.22Zm-2.66-67.8a5.46,5.46,0,0,0-5.45,5.46v48.75a5.46,5.46,0,0,0,5.45,5.45h2.66a5.45,5.45,0,0,0,5.45-5.45V117.88a5.46,5.46,0,0,0-5.45-5.46Z"/><path class="cls-3" d="M270.26,148.07c.62-8.54,2.88-17.88,2.83-26.79a17.52,17.52,0,1,1,5.73,34.08,17.32,17.32,0,0,1-8.87-2.43C270,151.31,270.14,149.69,270.26,148.07Z"/><path class="cls-1" d="M278.82,159a21.08,21.08,0,0,1-10.74-2.94,3.64,3.64,0,0,1-1.79-3.36c.1-1.64.2-3.28.32-4.92.26-3.57.8-7.3,1.32-10.9a107.56,107.56,0,0,0,1.5-15.6,3.67,3.67,0,0,1,2.46-3.48,21.18,21.18,0,1,1,6.93,41.2Zm-5.07-8.29a13.72,13.72,0,0,0,5.07,1,13.87,13.87,0,0,0,0-27.73,13.67,13.67,0,0,0-2.12.17c-.2,4.63-.87,9.29-1.52,13.81-.53,3.64-1,7.07-1.27,10.39C273.85,149.14,273.8,149.93,273.75,150.73Z"/><rect class="cls-3" x="262.44" y="107" width="21.7" height="67.8" rx="9.52"/><path class="cls-1" d="M276,177.51h-2.66a13.6,13.6,0,0,1-13.58-13.59V115.16a13.6,13.6,0,0,1,13.58-13.59H276a13.6,13.6,0,0,1,13.59,13.59v48.76A13.6,13.6,0,0,1,276,177.51Zm-2.66-67.8a5.46,5.46,0,0,0-5.45,5.45v48.76a5.46,5.46,0,0,0,5.45,5.45H276a5.45,5.45,0,0,0,5.45-5.45V115.16a5.46,5.46,0,0,0-5.45-5.45Z"/><path class="cls-4" d="M263.52,219.37V77a10,10,0,0,0-9.9-10H47.41c-5.47,0-12.82,4.48-12.82,10V219.37Z"/><path class="cls-1" d="M263.52,223H34.59a3.66,3.66,0,0,1-3.66-3.66V77c0-7.7,8.86-13.67,16.48-13.67H253.62A13.63,13.63,0,0,1,267.18,77V219.37A3.66,3.66,0,0,1,263.52,223ZM38.25,215.71H259.86V77a6.3,6.3,0,0,0-6.24-6.35H47.41c-3.78,0-9.16,3.28-9.16,6.35Z"/><path class="cls-2" d="M34.59,207.65V224.6c0,5.52,2.15,14.11,13.93,13.52h203c9-1.17,12.37-9.17,12.37-14.7V207.65Z"/><path class="cls-1" d="M47.4,241.81c-12.14,0-16.47-8.89-16.47-17.21V204H267.58v19.43c0,8.11-5.35,17-15.56,18.33l-.47,0h-203C48.26,241.8,47.82,241.81,47.4,241.81Zm-9.15-30.5V224.6c0,9.89,6.89,9.89,9.15,9.89l.94,0h203c7.07-1.05,9-7.65,9-11V211.31Z"/><path class="cls-1" d="M61.12,223.39a4.54,4.54,0,1,1-4.53-4.53A4.53,4.53,0,0,1,61.12,223.39Z"/><path class="cls-1" d="M77.25,223.39a4.54,4.54,0,1,1-4.54-4.53A4.53,4.53,0,0,1,77.25,223.39Z"/><path class="cls-1" d="M93.37,223.39a4.54,4.54,0,1,1-4.54-4.53A4.53,4.53,0,0,1,93.37,223.39Z"/><path class="cls-3" d="M242.06,206.82v-1.16c0-16.67-12.95-32.48-31.95-32.48H193.85c-18.83,0-31.16,14.63-31.52,33.64Z"/><path class="cls-1" d="M245.72,210.48H158.6l.07-3.73c.42-21.92,14.88-37.23,35.18-37.23h16.26c22,0,35.61,18.76,35.61,36.14Zm-79.49-7.32h72.05c-1.2-13.1-11.74-26.32-28.17-26.32H193.85C178.94,176.84,168,187.48,166.23,203.16Z"/><path class="cls-5" d="M238.52,203.35c0-12.65-7.84-22.81-22.66-26.17,9.79,5.78,15.43,13.07,15.43,25.78Z"/><path class="cls-2" d="M202.07,189.27a158.32,158.32,0,0,0,10.24-13.41s-.14-4-11.48-4c-8.55,0-11,3.51-11,3.51S197.44,183.9,202.07,189.27Z"/><path class="cls-1" d="M202.08,194.88l-2.78-3.22c-4.62-5.35-12.16-13.87-12.16-13.87l-1.89-2.13,1.61-2.36c.58-.85,4-5.1,14-5.1,13.8,0,15.08,5.76,15.14,7.53l.05,1.18-.66,1a161.19,161.19,0,0,1-10.51,13.76ZM195.5,176.2c1.82,2.06,4.25,4.83,6.51,7.41,2.31-2.87,4.24-5.49,5.53-7.3a21.69,21.69,0,0,0-6.71-.79A18.25,18.25,0,0,0,195.5,176.2Z"/><rect class="cls-2" x="192.32" y="148.31" width="19.02" height="28.52"/><path class="cls-1" d="M211.34,180.49a3.66,3.66,0,0,1-3.66-3.66V152H196v24.86a3.66,3.66,0,1,1-7.32,0V148.31a3.66,3.66,0,0,1,3.66-3.66h19a3.66,3.66,0,0,1,3.66,3.66v28.52A3.66,3.66,0,0,1,211.34,180.49Z"/><polygon class="cls-6" points="209.14 174.6 209.14 152.18 206.22 152.18 206.22 178.16 209.14 174.6"/><path class="cls-2" d="M226,145.2c0,13-9.38,23.59-20.95,23.59h-3.46c-11.57,0-20.94-10.57-20.94-23.59V123.62c0-13,9.37-23.59,20.94-23.59H205c11.57,0,20.95,10.56,20.95,23.59Z"/><path class="cls-1" d="M205,172.45h-3.46c-13.57,0-24.6-12.23-24.6-27.25V123.62c0-15,11-27.25,24.6-27.25H205c13.57,0,24.61,12.22,24.61,27.25V145.2C229.63,160.22,218.59,172.45,205,172.45Zm-3.46-68.76c-9.53,0-17.28,8.94-17.28,19.93V145.2c0,11,7.75,19.93,17.28,19.93H205c9.53,0,17.29-8.94,17.29-19.93V123.62c0-11-7.76-19.93-17.29-19.93Z"/><path class="cls-6" d="M223.77,122.6c0-11.13-8-20.31-17.85-21.37a25.8,25.8,0,0,1,10.7,21.37l1.71,19.74c0,11.71-4.64,18.83-12.46,22.63,10.07.31,17.9-10.46,17.9-21.58Z"/><path class="cls-7" d="M180.75,147s-8-7.94-8.79-16.41c-2.05-21.24,12.66-32,27.65-32h0A27.41,27.41,0,0,1,223,111.13c-10.11,12.55-20.12,5.06-38.62,7.84C181.7,119.37,180.75,135.26,180.75,147Z"/><path class="cls-1" d="M180.75,150.66a3.64,3.64,0,0,1-2.58-1.07c-.37-.36-8.92-9-9.85-18.65-1-10.41,1.63-19.41,7.63-26a31.83,31.83,0,0,1,23.66-10,31,31,0,0,1,26.45,14.27,3.67,3.67,0,0,1-.24,4.26c-6.33,7.86-13,8.95-19.35,8.95-1.81,0-3.7-.1-5.71-.2a86.51,86.51,0,0,0-14.46.22c-1,3.1-1.89,12.58-1.89,24.6a3.65,3.65,0,0,1-3.66,3.66Zm18.9-48.44a24.53,24.53,0,0,0-18.28,7.63c-4.57,5-6.57,12.08-5.76,20.39a17,17,0,0,0,1.71,5.62c.91-19.67,4.32-20.18,6.48-20.51a68,68,0,0,1,10.09-.72c2.61,0,5,.12,7.24.24,1.88.09,3.65.19,5.34.19,4.78,0,8.27-.72,11.8-4.18A23.86,23.86,0,0,0,199.65,102.22Z"/><path class="cls-8" d="M225.26,147.8s9.22-12,7-27.94c-1.87-13.24-15.3-24.44-33.06-23.63-9.95.46-19.66,7-24,17.86,10.71,14.68,19.89,20.89,42.15,21.23C220.28,135.36,226.66,141.66,225.26,147.8Z"/><path class="cls-1" d="M225.26,151.47a3.67,3.67,0,0,1-3.57-4.48c.81-3.56-3.14-7.65-4.63-8-24.13-.34-34.06-7.92-44.86-22.71a3.69,3.69,0,0,1-.44-3.53c4.73-11.7,15.43-19.6,27.26-20.14,18.66-.81,34.62,10.92,36.85,26.78,2.42,17.24-7.29,30.13-7.7,30.67A3.68,3.68,0,0,1,225.26,151.47Zm-45.89-37.84c9.23,12.19,17.43,17.72,38,18,3.14,0,6.34,2.69,8.29,5.16.27.34.52.68.75,1a35.07,35.07,0,0,0,2.21-17.48c-1.71-12.14-14.35-21.22-29.26-20.48C191,100.27,183.34,105.6,179.37,113.63Z"/><path class="cls-7" d="M229.06,120.75c-.35-4.72-3.73-9.55-7.24-13.15-4.6-4.71-12.46-7.26-20.24-7.26-.53,0-1.07,0-1.61,0a21.07,21.07,0,0,0-4.64.74c8.29.32,15.57,3.31,20.65,8.51a21.56,21.56,0,0,1,6.35,15.62c-.11,4.9.76,4-.85,7.76.46,1,4.59,4.52,4.83,5.64C227.92,134.62,229.87,131.49,229.06,120.75Z"/><path class="cls-9" d="M159.11,157.35l-14.94-17.82c.27-1.74.83-13.57.83-15.37v-5.87a35.42,35.42,0,0,0-35.25-35.43H95.26c-19.45,0-34.24,16-34.24,35.43v5.87c0,19.45,14.79,36.05,34.24,36.05h14.49c6.24,0,17.74-3,24.06-9.34Z"/><path class="cls-1" d="M109.75,163.87H95.26c-20.9,0-37.9-17.81-37.9-39.71v-5.87C57.36,96.37,74,79.2,95.26,79.2h14.49a39,39,0,0,1,38.91,39.09v5.87c0,1.5-.39,10.17-.7,14.19L161.91,155a3.66,3.66,0,0,1-3.71,5.9l-23.38-6C127.15,161.41,115.61,163.87,109.75,163.87ZM95.26,86.52c-17.15,0-30.58,14-30.58,31.77v5.87c0,17.86,13.72,32.39,30.58,32.39h14.49c5.33,0,15.83-2.63,21.47-8.27a3.67,3.67,0,0,1,3.5-.95L149,151l-7.63-9.1a3.69,3.69,0,0,1-.81-2.91c.22-1.42.79-13,.79-14.81v-5.87a31.71,31.71,0,0,0-31.59-31.77Z"/><path class="cls-1" d="M89.7,122.06a4.3,4.3,0,1,1-4.3-4.3A4.31,4.31,0,0,1,89.7,122.06Z"/><path class="cls-1" d="M105.78,121.94a4.3,4.3,0,1,1-4.41-4.18A4.31,4.31,0,0,1,105.78,121.94Z"/><path class="cls-1" d="M121.44,122.06a4.3,4.3,0,1,1-4.3-4.3A4.31,4.31,0,0,1,121.44,122.06Z"/><path class="cls-10" d="M149.4,151.33l-15-3.83a3.22,3.22,0,0,0-.81-.11,3.28,3.28,0,0,0-2.29,1c-5.58,5.58-16,8.19-21.23,8.19H95.93c-16.75,0-30.38-14.37-31.46-30.58l.73-14.45c4.68-15.85,11.2-17.44,11.3-18.57-6.12,12.25-5.53,33.88-2.66,40.19,5.4,11.88,13.69,14.76,22.69,14.76h19.1c.24,0,18-3.24,25.36-15.39-.18,3.68-.36,6.13-.44,6.66a3.13,3.13,0,0,0,.72,2.53Z"/><path class="cls-1" d="M140.4,180.22H67.18a4.07,4.07,0,0,1,0-8.14H140.4a4.07,4.07,0,0,1,0,8.14Z"/><path class="cls-1" d="M116,193.78H67.18a4.07,4.07,0,1,1,0-8.14H116a4.07,4.07,0,1,1,0,8.14Z"/><path class="cls-1" d="M137.69,269.72H116a4.07,4.07,0,1,1,0-8.14h21.7a4.07,4.07,0,0,1,0,8.14Z"/><path class="cls-1" d="M156.67,269.72h-5.42a4.07,4.07,0,1,1,0-8.14h5.42a4.07,4.07,0,0,1,0,8.14Z"/><path class="cls-3" d="M97.75,14.79h98.86A6.17,6.17,0,0,1,202.78,21V33a6.16,6.16,0,0,1-6.16,6.16H97.75A6.17,6.17,0,0,1,91.58,33V21A6.16,6.16,0,0,1,97.75,14.79Z"/><path class="cls-1" d="M198,41.91H99.11A10.24,10.24,0,0,1,88.87,31.68V19.6A10.25,10.25,0,0,1,99.11,9.36H198A10.24,10.24,0,0,1,208.2,19.6V31.68A10.24,10.24,0,0,1,198,41.91ZM99.11,17.5A2.1,2.1,0,0,0,97,19.6V31.68a2.1,2.1,0,0,0,2.1,2.09H198a2.1,2.1,0,0,0,2.09-2.09V19.6A2.1,2.1,0,0,0,198,17.5Z"/><path class="cls-1" d="M18.17,112.13c-.33-1.2-8-29.77,4.92-56.49,8.45-17.42,31.39-35.72,70.57-34.88l-.15,7.33c-35.68-.77-56.37,15.37-63.83,30.75C18,83,25.16,109.91,25.23,110.18Z"/></svg>