<svg id="Layer_1" data-name="Layer 1" xmlns="http://www.w3.org/2000/svg" viewBox="0 0 1921 1081"><title>BG02-01</title><path d="M720.36,829.14A75.88,75.88,0,0,0,796,753.49h0a75.88,75.88,0,0,0-75.65-75.65h0a32.08,32.08,0,0,1-32-32h0a32.07,32.07,0,0,1,32-32h3.8a33.36,33.36,0,0,0,33.26-33.26h0a33.36,33.36,0,0,0-33.26-33.26H712.49a13,13,0,0,1-13-12.94h0a13,13,0,0,1,13-12.95h8.58a9,9,0,0,0,8.93-8.94h0a9,9,0,0,0-8.93-8.93H663.38a14.08,14.08,0,0,1-14-14h0a14.08,14.08,0,0,1,14-14h17.25a9,9,0,0,0,8.93-8.94h0a9,9,0,0,0-8.93-8.93H428a11.69,11.69,0,0,0-11.66,11.66h0A11.7,11.7,0,0,0,428,481H445.7A18.37,18.37,0,0,1,464,499.28h0A18.38,18.38,0,0,1,445.7,517.6H377.27a11.7,11.7,0,0,0-11.66,11.66h0a11.7,11.7,0,0,0,11.66,11.66h11.2a16.94,16.94,0,0,1,16.89,16.89h0a17,17,0,0,1-16.89,16.9H373.23a43.51,43.51,0,0,0-43.39,43.39h0a43.52,43.52,0,0,0,43.39,43.4h5a41.86,41.86,0,0,1,41.74,41.73h0A41.87,41.87,0,0,1,378.2,745H367.44a42.2,42.2,0,0,0-42.08,42.09h0a42.2,42.2,0,0,0,42.08,42.08ZM398.18,481a11.66,11.66,0,1,1,11.66-11.66A11.66,11.66,0,0,1,398.18,481Zm348,40.5a8.94,8.94,0,1,1,8.94-8.94A8.93,8.93,0,0,1,746.14,521.46Z" transform="translate(0.5 0.5)" style="fill:#ebf4f4;fill-rule:evenodd"/><path d="M342.65,821v-9.62h-9.49l-.27-.38h31.55V798.48h-37.5c0-.12-.07-.25-.1-.38h15.81V785.58H325.39c0-.13,0-.26,0-.38h39V772.67H327.91c0-.13.09-.26.14-.38h14.6V759.76h-7.17l.33-.38h28.63V746.85H355c.43-.14.87-.26,1.31-.38h29.87v-2.28l.38-.07v2.35h43.19V733.94h-23.4l.41-.38H408v-1.18l.39-.39v1.57h43.18V721H415.92l.18-.38h13.69V708.12H419.65c0-.12,0-.25,0-.38h31.88V695.21H419.15c0-.12,0-.25-.07-.38h10.71V682.31H414.27l-.23-.39h37.53V669.4H408.39v5.08l-.39-.39V669.4h-5.44L402,669h27.77V656.49H386.6v5.86l-.38-.07v-5.79H353.06l-.71-.38h12.09V643.58H338.16l-.28-.38h4.77V630.67H331.71l-.12-.38h32.85V617.76h-34.6v-.38h12.81V604.85H331.92l.12-.38h32.4V591.94H338.67l.29-.38h3.69v-4.18c.13-.12.26-.24.38-.37v4.55h43.19V579H354.39l.81-.39h9.24v-3l.38-.08v3.12H408V566.13h-4.84l.21-.38h26.42V553.22H404.72c0-.13-.07-.26-.11-.38H408V540.31H373.56a10.28,10.28,0,0,1-1-.38h13.63V527.4H365.76c0-.13,0-.25.07-.38H408V517.6h.39V527h43.18V516.63l.38-.14V527h43.19V514.49H455.88l.54-.38h16.94V501.58h-9.48c0-.12,0-.25,0-.38h31.22V488.67H460.62l-.28-.38h13V475.77H430.17V481h-.38v-5.19H418.32l-.24-.39h33.49V462.86H418.31c.08-.13.17-.26.26-.38h11.22v-4.84h.38v4.84h43.19v-4.84h.38v4.84h43.18v-4.84h.38v4.84h43.19v-4.84h.38v4.84h43.19v-4.84h.38v4.84h43.19v-4.84H648v4.84h40.55c.07.12.13.25.19.38h-19v12.52h12.32a9,9,0,0,1-1.48.13H663.38a13.89,13.89,0,0,0-2.67.26H648v12.52h1.39l0,.38H626.22V501.2h29.35l.6.38H648v12.53h43.18V503.59h.39v10.52h38.28c0,.13-.05.26-.08.38H713.36v7H713v-7H669.79V527h32.08c-.09.12-.17.25-.26.38h-10v12.53h9.2l.19.38H669.79v12.53H713v-5.49h.38v5.49h29c.2.12.38.25.57.38h-7.82v12.53h18.75l.19.38H713.36v12.52h43.18v-5.6c.15.61.28,1.24.39,1.87v3.73h.43c0,.13,0,.26,0,.39H735.14v12.52h20.41c0,.13-.09.26-.13.38H713.36v12.53h33.91l-.41.38H735.14V612l-.38.13v-7.27H691.58v12.53h14.24l-.71.38H669.79v12.53h22.65l-.21.38h-.65v1.27c-.14.27-.26.54-.39.81v-2.08H648V643.2h40.47l0,.38H669.79v12.53h20.28c0,.12.09.25.13.38H648V669h43.18V659c.13.27.25.54.39.81V669h6.77l.41.38h-29v12.52H713V677l.38.09v4.86h31.46l1.07.39H735.14v12.52H768l.47.38H756.93v12.53H780.5c.09.13.19.26.29.38h-2.08v12.53h9.75l.18.38H756.93v12.53h36.39c0,.13.07.25.1.38H778.71v12.53h17l0,.38H756.93v12.53h38.85c0,.12,0,.25,0,.38h-17v12.53h14.92c0,.12-.07.25-.1.38h-36.6V785.2H789c-.06.12-.11.25-.18.38h-10.1V798.1h2.64l-.28.38H756.93V811h12.42l-.45.38H735.14v12.53h12.75l-1,.38H713.36v4.84H713V824.3H669.79v4.84h-.38V824.3H626.22v4.84h-.38V824.3H582.66v4.84h-.38V824.3H539.09v4.84h-.38V824.3H495.52v4.84h-.38V824.3H452v4.84h-.38V824.3H408.39v4.84H408V824.3H364.82v4.76l-.38,0V824.3H347.91l-.7-.38h39V811.39H343v9.9l-.38-.28Zm65.23-345.24q.27-.4.51-.84V463.66c-.13-.22-.25-.43-.39-.64v12.36H388.23l.24.39Zm0-12.91-.27-.38H388.72c-.09.12-.18.25-.26.38Zm329.52,51.63h17.44c0-.12,0-.25.08-.38H737.35c0,.13,0,.26.07.38Zm-2.66,296.9H691.58v12.53h43.18V811.39Zm-43.57,0H648v12.53h43.18V811.39Zm-43.56,0H604.44v12.53h43.19V811.39Zm-43.57,0H560.87v12.53h43.19V811.39Zm-43.57,0H517.3v12.53h43.19V811.39Zm-43.57,0H473.74v12.53h43.18V811.39Zm-43.56,0H430.17v12.53h43.19V811.39Zm-43.57,0H386.6v12.53h43.19V811.39Zm326.75-12.91H713.36V811h43.18V798.48Zm-43.56,0H669.79V811H713V798.48Zm-43.57,0H626.22V811h43.19V798.48Zm-43.57,0H582.66V811h43.18V798.48Zm-43.56,0H539.09V811h43.19V798.48Zm-43.57,0H495.52V811h43.19V798.48Zm-43.57,0H452V811h43.19V798.48Zm-43.57,0H408.39V811h43.18V798.48Zm-43.57,0H364.82V811H408V798.48Zm370.33-12.9H735.14V798.1h43.19V785.58Zm-43.57,0H691.58V798.1h43.18V785.58Zm-43.57,0H648V798.1h43.18V785.58Zm-43.56,0H604.44V798.1h43.19V785.58Zm-43.57,0H560.87V798.1h43.19V785.58Zm-43.57,0H517.3V798.1h43.19V785.58Zm-43.57,0H473.74V798.1h43.18V785.58Zm-43.56,0H430.17V798.1h43.19V785.58Zm-43.57,0H386.6V798.1h43.19V785.58Zm-43.57,0H343V798.1h43.19V785.58Zm370.32-12.91H713.36V785.2h43.18V772.67Zm-43.56,0H669.79V785.2H713V772.67Zm-43.57,0H626.22V785.2h43.19V772.67Zm-43.57,0H582.66V785.2h43.18V772.67Zm-43.56,0H539.09V785.2h43.19V772.67Zm-43.57,0H495.52V785.2h43.19V772.67Zm-43.57,0H452V785.2h43.19V772.67Zm-43.57,0H408.39V785.2h43.18V772.67Zm-43.57,0H364.82V785.2H408V772.67Zm370.33-12.91H735.14v12.53h43.19V759.76Zm-43.57,0H691.58v12.53h43.18V759.76Zm-43.57,0H648v12.53h43.18V759.76Zm-43.56,0H604.44v12.53h43.19V759.76Zm-43.57,0H560.87v12.53h43.19V759.76Zm-43.57,0H517.3v12.53h43.19V759.76Zm-43.57,0H473.74v12.53h43.18V759.76Zm-43.56,0H430.17v12.53h43.19V759.76Zm-43.57,0H386.6v12.53h43.19V759.76Zm-43.57,0H343v12.53h43.19V759.76Zm370.32-12.91H713.36v12.53h43.18V746.85Zm-43.56,0H669.79v12.53H713V746.85Zm-43.57,0H626.22v12.53h43.19V746.85Zm-43.57,0H582.66v12.53h43.18V746.85Zm-43.56,0H539.09v12.53h43.19V746.85Zm-43.57,0H495.52v12.53h43.19V746.85Zm-43.57,0H452v12.53h43.19V746.85Zm-43.57,0H408.39v12.53h43.18V746.85Zm-43.57,0H364.82v12.53H408V746.85Zm370.33-12.91H735.14v12.53h43.19V733.94Zm-43.57,0H691.58v12.53h43.18V733.94Zm-43.57,0H648v12.53h43.18V733.94Zm-43.56,0H604.44v12.53h43.19V733.94Zm-43.57,0H560.87v12.53h43.19V733.94Zm-43.57,0H517.3v12.53h43.19V733.94Zm-43.57,0H473.74v12.53h43.18V733.94Zm-43.56,0H430.17v12.53h43.19V733.94ZM756.54,721H713.36v12.53h43.18V721ZM713,721H669.79v12.53H713V721Zm-43.57,0H626.22v12.53h43.19V721Zm-43.57,0H582.66v12.53h43.18V721Zm-43.56,0H539.09v12.53h43.19V721Zm-43.57,0H495.52v12.53h43.19V721Zm-43.57,0H452v12.53h43.19V721Zm283.19-12.91H735.14v12.53h43.19V708.12Zm-43.57,0H691.58v12.53h43.18V708.12Zm-43.57,0H648v12.53h43.18V708.12Zm-43.56,0H604.44v12.53h43.19V708.12Zm-43.57,0H560.87v12.53h43.19V708.12Zm-43.57,0H517.3v12.53h43.19V708.12Zm-43.57,0H473.74v12.53h43.18V708.12Zm-43.56,0H430.17v12.53h43.19V708.12Zm283.18-12.91H713.36v12.53h43.18V695.21Zm-43.56,0H669.79v12.53H713V695.21Zm-43.57,0H626.22v12.53h43.19V695.21Zm-43.57,0H582.66v12.53h43.18V695.21Zm-43.56,0H539.09v12.53h43.19V695.21Zm-43.57,0H495.52v12.53h43.19V695.21Zm-43.57,0H452v12.53h43.19V695.21Zm239.62-12.9H691.58v12.52h43.18V682.31Zm-43.57,0H648v12.52h43.18V682.31Zm-43.56,0H604.44v12.52h43.19V682.31Zm-43.57,0H560.87v12.52h43.19V682.31Zm-43.57,0H517.3v12.52h43.19V682.31Zm-43.57,0H473.74v12.52h43.18V682.31Zm-43.56,0H430.17v12.52h43.19V682.31Zm196-12.91H626.22v12.52h43.19V669.4Zm-43.57,0H582.66v12.52h43.18V669.4Zm-43.56,0H539.09v12.52h43.19V669.4Zm-43.57,0H495.52v12.52h43.19V669.4Zm-43.57,0H452v12.52h43.19V669.4Zm152.49-12.91H604.44V669h43.19V656.49Zm-43.57,0H560.87V669h43.19V656.49Zm-43.57,0H517.3V669h43.19V656.49Zm-43.57,0H473.74V669h43.18V656.49Zm-43.56,0H430.17V669h43.19V656.49Zm196-12.91H626.22v12.53h43.19V643.58Zm-43.57,0H582.66v12.53h43.18V643.58Zm-43.56,0H539.09v12.53h43.19V643.58Zm-43.57,0H495.52v12.53h43.19V643.58Zm-43.57,0H452v12.53h43.19V643.58Zm-43.57,0H408.39v12.53h43.18V643.58Zm-43.57,0H364.82v12.53H408V643.58Zm239.63-12.91H604.44V643.2h43.19V630.67Zm-43.57,0H560.87V643.2h43.19V630.67Zm-43.57,0H517.3V643.2h43.19V630.67Zm-43.57,0H473.74V643.2h43.18V630.67Zm-43.56,0H430.17V643.2h43.19V630.67Zm-43.57,0H386.6V643.2h43.19V630.67Zm-43.57,0H343V643.2h43.19V630.67Zm283.19-12.91H626.22v12.53h43.19V617.76Zm-43.57,0H582.66v12.53h43.18V617.76Zm-43.56,0H539.09v12.53h43.19V617.76Zm-43.57,0H495.52v12.53h43.19V617.76Zm-43.57,0H452v12.53h43.19V617.76Zm-43.57,0H408.39v12.53h43.18V617.76Zm-43.57,0H364.82v12.53H408V617.76Zm283.19-12.91H648v12.53h43.18V604.85Zm-43.56,0H604.44v12.53h43.19V604.85Zm-43.57,0H560.87v12.53h43.19V604.85Zm-43.57,0H517.3v12.53h43.19V604.85Zm-43.57,0H473.74v12.53h43.18V604.85Zm-43.56,0H430.17v12.53h43.19V604.85Zm-43.57,0H386.6v12.53h43.19V604.85Zm-43.57,0H343v12.53h43.19V604.85ZM713,591.94H669.79v12.53H713V591.94Zm-43.57,0H626.22v12.53h43.19V591.94Zm-43.57,0H582.66v12.53h43.18V591.94Zm-43.56,0H539.09v12.53h43.19V591.94Zm-43.57,0H495.52v12.53h43.19V591.94Zm-43.57,0H452v12.53h43.19V591.94Zm-43.57,0H408.39v12.53h43.18V591.94Zm-43.57,0H364.82v12.53H408V591.94ZM734.76,579H691.58v12.52h43.18V579Zm-43.57,0H648v12.52h43.18V579Zm-43.56,0H604.44v12.52h43.19V579Zm-43.57,0H560.87v12.52h43.19V579Zm-43.57,0H517.3v12.52h43.19V579Zm-43.57,0H473.74v12.52h43.18V579Zm-43.56,0H430.17v12.52h43.19V579Zm-43.57,0H386.6v12.52h43.19V579ZM713,566.13H669.79v12.52H713V566.13Zm-43.57,0H626.22v12.52h43.19V566.13Zm-43.57,0H582.66v12.52h43.18V566.13Zm-43.56,0H539.09v12.52h43.19V566.13Zm-43.57,0H495.52v12.52h43.19V566.13Zm-43.57,0H452v12.52h43.19V566.13Zm-43.57,0H408.39v12.52h43.18V566.13Zm283.19-12.91H691.58v12.53h43.18V553.22Zm-43.57,0H648v12.53h43.18V553.22Zm-43.56,0H604.44v12.53h43.19V553.22Zm-43.57,0H560.87v12.53h43.19V553.22Zm-43.57,0H517.3v12.53h43.19V553.22Zm-43.57,0H473.74v12.53h43.18V553.22Zm-43.56,0H430.17v12.53h43.19V553.22Zm196-12.91H626.22v12.53h43.19V540.31Zm-43.57,0H582.66v12.53h43.18V540.31Zm-43.56,0H539.09v12.53h43.19V540.31Zm-43.57,0H495.52v12.53h43.19V540.31Zm-43.57,0H452v12.53h43.19V540.31Zm-43.57,0H408.39v12.53h43.18V540.31ZM691.19,527.4H648v12.53h43.18V527.4Zm-43.56,0H604.44v12.53h43.19V527.4Zm-43.57,0H560.87v12.53h43.19V527.4Zm-43.57,0H517.3v12.53h43.19V527.4Zm-43.57,0H473.74v12.53h43.18V527.4Zm-43.56,0H430.17v12.53h43.19V527.4Zm-43.57,0H386.6v12.53h43.19V527.4Zm239.62-12.91H626.22V527h43.19V514.49Zm-43.57,0H582.66V527h43.18V514.49Zm-43.56,0H539.09V527h43.19V514.49Zm-43.57,0H495.52V527h43.19V514.49Zm108.92-12.91H604.44v12.53h43.19V501.58Zm-43.57,0H560.87v12.53h43.19V501.58Zm-43.57,0H517.3v12.53h43.19V501.58Zm-43.57,0H473.74v12.53h43.18V501.58Zm108.92-12.91H582.66V501.2h43.18V488.67Zm-43.56,0H539.09V501.2h43.19V488.67Zm-43.57,0H495.52V501.2h43.19V488.67Zm108.92-12.9H604.44v12.52h43.19V475.77Zm-43.57,0H560.87v12.52h43.19V475.77Zm-43.57,0H517.3v12.52h43.19V475.77Zm-43.57,0H473.74v12.52h43.18V475.77Zm152.49-12.91H626.22v12.52h43.19V462.86Zm-43.57,0H582.66v12.52h43.18V462.86Zm-43.56,0H539.09v12.52h43.19V462.86Zm-43.57,0H495.52v12.52h43.19V462.86Zm-43.57,0H452v12.52h43.19Z" transform="translate(0.5 0.5)" style="fill:#c8dee1;fill-rule:evenodd"/><rect x="456.02" y="579.36" width="1.96" height="3.79" rx="0.98" style="fill:#abc4c8"/><rect x="456.02" y="583.78" width="1.96" height="3.79" rx="0.98" style="fill:#abc4c8"/><rect x="456.02" y="588.14" width="1.96" height="3.79" rx="0.98" style="fill:#abc4c8"/><rect x="456.02" y="592.5" width="1.96" height="3.79" rx="0.98" style="fill:#abc4c8"/><rect x="456.02" y="596.86" width="1.96" height="3.79" rx="0.98" style="fill:#abc4c8"/><rect x="456.02" y="601.22" width="1.96" height="3.79" rx="0.98" style="fill:#abc4c8"/><rect x="456.02" y="605.58" width="1.96" height="3.79" rx="0.98" style="fill:#abc4c8"/><rect x="456.02" y="609.94" width="1.96" height="3.79" rx="0.98" style="fill:#abc4c8"/><path d="M457.15,612.05a1,1,0,0,1,.87.66l2.39,7.55a.46.46,0,0,1-.45.66H453a.47.47,0,0,1-.45-.66l2.39-7.55a1,1,0,0,1,.87-.66Z" transform="translate(0.5 0.5)" style="fill:#fff;fill-rule:evenodd"/><rect x="474.36" y="583.98" width="4.82" height="236.79" rx="1.12" style="fill:#7a9297"/><rect x="470.13" y="563.64" width="13.28" height="26.08" rx="3.08" style="fill:#7a9297"/><rect x="470.13" y="810.81" width="13.28" height="19.91" rx="3.08" style="fill:#7a9297"/><path d="M489.79,831.76H462.74a2.65,2.65,0,0,1-2.65-2.65h0a2.65,2.65,0,0,1,2.65-2.65h27.05a2.66,2.66,0,0,1,2.66,2.65h0A2.66,2.66,0,0,1,489.79,831.76Z" transform="translate(0.5 0.5)" style="fill:#7a9297;fill-rule:evenodd"/><path d="M476.27,533.06h12.5a5.21,5.21,0,0,1,4.59,3.49l12.6,39.8a2.47,2.47,0,0,1-2.38,3.49H449c-1.92,0-3-1.57-2.39-3.49l12.6-39.8a5.22,5.22,0,0,1,4.59-3.49Z" transform="translate(0.5 0.5)" style="fill:#fff;fill-rule:evenodd"/><path d="M500.45,558.94l1.43,4.54H450.65l1.44-4.54Zm2.3,7.29,2.88,9.08H446.9l2.88-9.08Z" transform="translate(0.5 0.5)" style="fill:#c8dee1;fill-rule:evenodd"/><circle cx="457" cy="583.47" r="0.55" style="fill:#7a9297"/><path d="M456.5,587.87a.55.55,0,1,0-.55-.54A.55.55,0,0,0,456.5,587.87Z" transform="translate(0.5 0.5)" style="fill:#7a9297;fill-rule:evenodd"/><path d="M456.5,592.23a.55.55,0,1,0-.55-.55A.55.55,0,0,0,456.5,592.23Z" transform="translate(0.5 0.5)" style="fill:#7a9297;fill-rule:evenodd"/><path d="M456.5,596.59A.55.55,0,1,0,456,596,.55.55,0,0,0,456.5,596.59Z" transform="translate(0.5 0.5)" style="fill:#7a9297;fill-rule:evenodd"/><circle cx="457" cy="600.9" r="0.55" style="fill:#7a9297"/><circle cx="457" cy="605.26" r="0.55" style="fill:#7a9297"/><circle cx="457" cy="609.62" r="0.55" style="fill:#7a9297"/><path d="M570.11,661.24h13.28c5.92,0,10-2,15-10.74l11.48-19.87s4.37-7.18,15.57-7.18h33.61c4.32,0,12.8.64,15.68,7.52s14,33.9,14,33.9l-21.2,1.63-20.32,34.57s-28,2.24-33.61,1.6-26.89-1.92-26.89-1.92Z" transform="translate(0.5 0.5)" style="fill:#ea574d;fill-rule:evenodd"/><path d="M615.12,571.52a17.71,17.71,0,0,0-7.71,4.91c-2,2.19-24.37,44.47-26.11,47.31s-2.64,10.35.05,15.31,18.49,33,18.49,33l6-9s-12.66-28-13.22-29.41-.75-2.75.83-4.88,17.23-21,17.23-21S622,581,615.12,571.52Z" transform="translate(0.5 0.5)" style="fill:#141a33;fill-rule:evenodd"/><rect x="628.25" y="711.88" width="3.45" height="115.53" rx="1.26" style="fill:#00000f"/><rect x="623.53" y="708.66" width="12.89" height="13.98" rx="4.71" style="fill:#141a33"/><rect x="624.59" y="820.52" width="10.76" height="6.89" rx="2.52" style="fill:#141a33"/><rect x="610.93" y="823.97" width="38.08" height="10.58" rx="3.87" style="fill:#030822"/><path d="M653.65,710.5h0a3.33,3.33,0,0,0-3.33-3.32h-41.7a3.33,3.33,0,0,0-3.33,3.32h0a3.34,3.34,0,0,0,3.33,3.33h41.7A3.34,3.34,0,0,0,653.65,710.5Z" transform="translate(0.5 0.5)" style="fill:#030822;fill-rule:evenodd"/><path d="M662.59,709.13h0a1.88,1.88,0,0,0-1.88-1.87H598.29a1.87,1.87,0,0,0-1.87,1.87h0a1.88,1.88,0,0,0,1.87,1.88h62.42A1.88,1.88,0,0,0,662.59,709.13Z" transform="translate(0.5 0.5)" style="fill:#00000f;fill-rule:evenodd"/><path d="M618.33,701.85h42.3a3.69,3.69,0,0,1,3.68,3.68h0a3.69,3.69,0,0,1-3.68,3.69h-42.3a3.7,3.7,0,0,1-3.68-3.69h0A3.7,3.7,0,0,1,618.33,701.85Z" transform="translate(0.5 0.5)" style="fill:#c83c4a;fill-rule:evenodd"/><path d="M594.24,701.85H630.3a3.7,3.7,0,0,1,3.68,3.68h0a3.7,3.7,0,0,1-3.68,3.69H594.24a3.7,3.7,0,0,1-3.69-3.69h0A3.7,3.7,0,0,1,594.24,701.85Z" transform="translate(0.5 0.5)" style="fill:#da5252;fill-rule:evenodd"/><path d="M669.33,631c2.42,5.79,10.66,25.79,13.23,32H686a3,3,0,0,1,2.8,1.87s-11.12-27-14-33.9-11.36-7.52-15.68-7.52h-5.44C658,623.45,666.45,624.09,669.33,631Z" transform="translate(0.5 0.5)" style="fill:#d84743;fill-rule:evenodd"/><path d="M555.22,667.28a3,3,0,0,1,0-6h16.33a3,3,0,0,1,2.82,2l16.41,36.29H646l19.78-35a3,3,0,0,1,2.62-1.52H686a3,3,0,1,1,0,6H670.12l-19.65,34.74a3,3,0,0,1-2.74,1.74h-58.9a3,3,0,0,1-2.75-1.78L569.6,667.28Z" transform="translate(0.5 0.5)" style="fill:#ec6957;fill-rule:evenodd"/><path d="M566.78,799.44S547.64,709,546.67,698.77c-.93-9.8-6.33-23.89,56-33.59,2.63-.41,4.67-3.06,7.54-3.45,0,0,49.63,2.4,55.09,4.61s-8.86,20.88-55.34,25.29-34.58,20.09-34.58,20.09,1.68,83.12,2.79,87.49S571.29,805.84,566.78,799.44Z" transform="translate(0.5 0.5)" style="fill:#00000f;fill-rule:evenodd"/><path d="M612.27,656.76c-2.11,1-5.74,9.13-8.39,10.11-10.41,3.85-23.72,7.92-30,12.19-6.72,4.56-9.49,11.22-11.55,16.52-2.69,7-34.32,79.77-36.16,82.83s3.7,8,5.9,9.07,5.2-3,5.2-3,39.86-68.23,51.42-85.07l49.35.06s15.84-2.55,24.44-13.71c9.27-12,1.62-41.32-2.46-41.71-7.74-.74-31.74-4.5-44.15,1.57C608.32,649.32,615.69,656.79,612.27,656.76Z" transform="translate(0.5 0.5)" style="fill:#030822;fill-rule:evenodd"/><path d="M612.27,656.76c-2.11,1-5.74,9.13-8.39,10.11-.84.31-1.7.63-2.58.94,0,0,25.66-5.7,33.3,2.79s6.8,21.07-17.5,21.92-28.05.85-31.52,0-29.61,51.82-36.44,59.3c-2.63,2.88-6.68,1.67-10.67-.91-6.32,14.43-11.6,26.3-12.32,27.5-1.84,3.06,3.7,8,5.9,9.07s5.2-3,5.2-3,39.86-68.23,51.42-85.07l49.35.06s15.84-2.55,24.44-13.71c9.27-12,1.62-41.32-2.46-41.71-7.74-.74-31.74-4.5-44.15,1.57C608.32,649.32,615.69,656.79,612.27,656.76Z" transform="translate(0.5 0.5)" style="fill:#00000f;fill-rule:evenodd"/><rect x="519.65" y="777.11" width="9.21" height="11.56" rx="1.33" transform="matrix(0.46, -0.89, 0.89, 0.46, -411.14, 892.3)" style="fill:#d84743"/><path d="M535.2,796.36a7.64,7.64,0,0,0,.32,1,20.43,20.43,0,0,1-1.44,3.12c-.46,1.07-1.45,1.79-2.56,1.22l-6.72-3.45,4-5.21,3.86-.93Z" transform="translate(0.5 0.5)" style="fill:#f2dddc;fill-rule:evenodd"/><rect x="520.5" y="773.13" width="17.34" height="11.56" rx="1.67" transform="translate(-404.92 894.49) rotate(-62.83)" style="fill:#d84743"/><path d="M529.83,792.83c.75-.57,1.8.64,2.83-.69,3.57-4.6,7.88-14.54,7.3-14.83l-3.79-1.95c-.44-.23.14.36-2.11.63-1.82-.93-5.42,4.43-8.79,6.6-1.9,1.23-1.93,1-2.8.6l-1-.54c-.67-.34-2.59-.57.2-2.6s5.31-4.1,5.9-5.25a5.68,5.68,0,0,0-.21-3.95c-.32-.59-2-.37-2.49-.2a2.22,2.22,0,0,0-1.25,1.26l-2,4c-.48.92-8.47,4-9.62,6.2s-1,1.92-1.25,2.44a2.44,2.44,0,0,0-.26,1.38,3.83,3.83,0,0,1,0,.82l17,8.71A6.2,6.2,0,0,0,529.83,792.83Z" transform="translate(0.5 0.5)" style="fill:#ec6957;fill-rule:evenodd"/><path d="M535.2,796.36l3.68-7.18c.58-1.13-.14-2.52.67-4.09l2.49-4.87c.28-.54-.55-2.13-1-2.35l-3.77-2s.52,2.3.53,2.55a45.86,45.86,0,0,1-2.44,4.75c-.8,1.55,0,3.25-.25,3.68s-.75,1.46-1.26,2.47-2.63,2.92-5.85,1-1.87-3.3-6.17-5.51l-6.57-3.37a2.21,2.21,0,0,1-1.28-1.28,4.2,4.2,0,0,0-2.06,1.83c-1.16,2.25-1,1.92-1.25,2.44a2.14,2.14,0,0,0-.17,1.43,3.46,3.46,0,0,1,0,.85l18.4,9.45a4.87,4.87,0,0,1,.42-1.87l.2-.9a2.41,2.41,0,0,1,2,.29l2.55,1.31a6.82,6.82,0,0,1,1.1,1.32Z" transform="translate(0.5 0.5)" style="fill:#ea5a50;fill-rule:evenodd"/><path d="M529.58,793.47s.74,1.1.86,1.32A20.78,20.78,0,0,1,529,797.9a4.26,4.26,0,0,1-2,1.14,1.94,1.94,0,0,1-1.12-.19L510.54,791l-2-1a1,1,0,0,1-.43-1.26c.22-.44,1-1.91,1.19-2.32s1.09-.49,1.09-.49a3.65,3.65,0,0,0,3.1,1.38c1.84-.26,3.48-.33,5,1.21S524.59,795.75,529.58,793.47Z" transform="translate(0.5 0.5)" style="fill:#fff;fill-rule:evenodd"/><path d="M529.58,793.47s.74,1.1.86,1.32A20.78,20.78,0,0,1,529,797.9a4.26,4.26,0,0,1-2,1.14,1.94,1.94,0,0,1-1.12-.19L514.55,793l-1.86-1.83,10.76,5.53c1.41.72,2.41.62,2.66.13l1.06-2.07a1,1,0,0,0-.06-.78A5.62,5.62,0,0,0,529.58,793.47Z" transform="translate(0.5 0.5)" style="fill:#f2dddc;fill-rule:evenodd"/><path d="M518.65,793.08a19.56,19.56,0,0,0,3.3,3.74L510.54,791l-2-1a1,1,0,0,1-.43-1.26c.05-.09.11-.23.2-.39,0,0,1.3,1.76,3.1,1.38S516.21,789.69,518.65,793.08Z" transform="translate(0.5 0.5)" style="fill:#00000f;fill-rule:evenodd"/><path d="M520.77,779.18c-.16-.16-.1-.38.13-.49a.63.63,0,0,1,.69.09l2.41,2.5,4.1.85c.27,0,.42.25.35.43a.54.54,0,0,1-.62.24l-3-.6,1.73,1.79c.16.16.1.38-.13.49a.65.65,0,0,1-.7-.1l-2.4-2.49-4.1-.85c-.27,0-.43-.25-.35-.44a.57.57,0,0,1,.62-.24l2.94.61-1.72-1.79Zm13-2.59-4.1-.85-2.41-2.49a.63.63,0,0,0-.69-.1c-.23.11-.29.33-.13.49l1.72,1.79-2.94-.6a.54.54,0,0,0-.62.24c-.08.18.08.38.35.44l4.1.84,2.4,2.5a.65.65,0,0,0,.7.09c.23-.11.29-.32.13-.49l-1.73-1.79,2.95.61a.57.57,0,0,0,.62-.24c.07-.19-.08-.39-.35-.44ZM531,779.36l-4.11-.85-2.4-2.49a.65.65,0,0,0-.7-.1c-.23.11-.29.33-.13.49l1.73,1.79-3-.6a.56.56,0,0,0-.62.23c-.07.19.08.39.35.44l4.1.85,2.41,2.49a.63.63,0,0,0,.7.1.3.3,0,0,0,.13-.49l-1.73-1.79,2.94.61a.56.56,0,0,0,.62-.24C531.37,779.61,531.21,779.41,531,779.36Z" transform="translate(0.5 0.5)" style="fill:#fff;fill-rule:evenodd"/><path d="M641.36,550.66l-.06,4.49s.32,9.56.35,10.59.53,1.38,1.79,2.21c1.71,2.64-2.48,14.15-5.72,14.65s-18.29-.45-19.37-1.25c-.76-.56,6.63-10.64,6.15-12.27a4.07,4.07,0,0,0,1.73-.81c3.1-2.74,2.48-10.14.09-12.73C624.54,553.61,641.36,550.66,641.36,550.66Z" transform="translate(0.5 0.5)" style="fill:#dc5748;fill-rule:evenodd"/><path d="M614.67,585.7c2.68-1.57,4.28-.33,7.33,2.49s5.86,2.5,7.51,3.11,2.49,27.14-8.07,31.35c-3.91,1.55-6.42,0-8.05-3.11C610.46,613.91,607.72,589.79,614.67,585.7Z" transform="translate(0.5 0.5)" style="fill:#f6f5f4;fill-rule:evenodd"/><path d="M664.36,657.2c-1.26,2.86-5.58,5.23-10.76,7-7.7-3-20.79,1.6-30.64,1.13-11.21-.54-15.8-3.1-15.8-3.1l-.72.51a3.25,3.25,0,0,1-.79-.78h0c-1.28-2-.65-4.87-.15-7.47.9-4.68,4.81-1.41,3.12-23.49s-7.55-59.73,16.12-62.53c0,0-.24.54-.6,1.53l1,0s-2.13,6.72,2.32,8.91,9.29-.93,11.39-3.5a1.39,1.39,0,0,1,1.07-.54c1.47-1.9,3.09-3.82,4.89-5.77,5,.78,13,4.48,13,4.48,4,1.76,8.39,5.48,9.19,9.51,1.12,5.71-4.62,25.12-8.57,37.61C651.84,641.68,668,648.83,664.36,657.2Z" transform="translate(0.5 0.5)" style="fill:#cfc9d0;fill-rule:evenodd"/><path d="M626.84,586.07S616,627.31,614.42,635.52a6.25,6.25,0,0,0,.86,3.8c1.16,2.07,4.9,8.95,5.48,9.75s1,.21,1.77-.48,5.54-5.71,6.34-6.67c.45-.54.83-1.24.79-3.09-.24-11.47-1.2-22-.61-34.35.32-6.7.81-13.1,1.45-17.42l3.39-3.34-1.47-3a8,8,0,0,0-4.14-.91,3.62,3.62,0,0,0-3,1.85Z" transform="translate(0.5 0.5)" style="fill:#9e9ba5;fill-rule:evenodd"/><path d="M612.73,664.07a23.07,23.07,0,0,1-5.57-1.82l-.72.51a3.25,3.25,0,0,1-.79-.78h0c-1.28-2-.65-4.87-.15-7.47.9-4.68,4.81-1.41,3.12-23.49-1.52-19.74-6.36-51.94,9.57-60.53,3.52,2.43,5.68,6.48,5.64,12.8l-.27,1.44a14.63,14.63,0,0,0-1.19,1.42c-.11.24-2.64,29.55-2.64,29.55Z" transform="translate(0.5 0.5)" style="fill:#9e9ba5;fill-rule:evenodd"/><path d="M625.89,586.07s-10.83,41.24-12.43,49.45a6.25,6.25,0,0,0,.86,3.8c1.16,2.07,4.9,8.95,5.48,9.75s1,.21,1.77-.48,5.54-5.71,6.34-6.67c.45-.54.83-1.24.79-3.09-.24-11.47-1.2-22-.61-34.35.31-6.7.81-13.1,1.45-17.42l-.91-3.61S625.94,584.74,625.89,586.07Z" transform="translate(0.5 0.5)" style="fill:#ea574d;fill-rule:evenodd"/><path d="M621.57,648.59c.74-.69,5.54-5.71,6.34-6.67.45-.54.83-1.24.79-3.09-.24-11.47-1.2-22-.61-34.35.31-6.7.81-13.1,1.45-17.42l-.65-2.6-1.44.71-.46.73a4.69,4.69,0,0,1,.92,1.21c.32.66-1.85,22.48-2.32,27.6s-1.12,25-1,26.25S621.57,648.59,621.57,648.59Z" transform="translate(0.5 0.5)" style="fill:#d84743;fill-rule:evenodd"/><path d="M620.5,606.83c-3,11.57-6.22,24.48-7,28.69a6.25,6.25,0,0,0,.86,3.8c.35.62.93,1.66,1.58,2.85l3.83-26.47S620.06,611.8,620.5,606.83Z" transform="translate(0.5 0.5)" style="fill:#d84743;fill-rule:evenodd"/><path d="M624.34,581.7l1.55,4.37a3.45,3.45,0,0,1,3.65,1l3.39-3.34-1.47-3a8,8,0,0,0-4.14-.91A3.62,3.62,0,0,0,624.34,581.7Z" transform="translate(0.5 0.5)" style="fill:#ea574d;fill-rule:evenodd"/><path d="M627.93,586a3.18,3.18,0,0,1,1.61,1l3.39-3.34-1.47-3a8,8,0,0,0-4.14-.91,4,4,0,0,0-.5.08l-.09.2a25.58,25.58,0,0,1,2.34,1.74c.52.52-1.14,4.15-1.14,4.15Z" transform="translate(0.5 0.5)" style="fill:#d84743;fill-rule:evenodd"/><path d="M645.25,568a11.16,11.16,0,0,1,1.87,1.46,2.41,2.41,0,0,1,0,1.94c-.45,1.18-11.67,15.21-11.67,15.21s-.37.5-.88,0-4.83-7-4.83-7l14-12C644.2,567.19,644.86,567.79,645.25,568Z" transform="translate(0.5 0.5)" style="fill:#fff;fill-rule:evenodd"/><path d="M626.41,568.1s0,0,0,0a4.48,4.48,0,0,0-3.6.74c-2,1.91-.32,13.6.27,15.59v0a.87.87,0,0,0,1.12.18c.64-.39,4.05-5.32,4.05-5.32C627.68,578.31,623.73,573.36,626.41,568.1Z" transform="translate(0.5 0.5)" style="fill:#fff;fill-rule:evenodd"/><path d="M646.23,568.72s-15.86,33.68-17.62,49.52,11.31,48.87,12.16,50.68,17.35,9.62,25,9.67c0,0,1.22,0,1.52-.39s1.44-1.65,1.84-2.16a3,3,0,0,0,.37-2.69c-.35-1.28-8-41.4-9-46.63s6.08-32.86,7.15-38S670.21,574.23,646.23,568.72Z" transform="translate(0.5 0.5)" style="fill:#141a33;fill-rule:evenodd"/><path d="M642.4,577.24c-4.81,11-12.59,30.18-13.79,41a28.27,28.27,0,0,0-.16,3,29.42,29.42,0,0,1,6.81-10.53c2.9-2.93,7.16-6.77,9.66-8.85,3.84-3.2,8.64-6.29,8-9.81s-3-14.09-3-14.09Z" transform="translate(0.5 0.5)" style="fill:#3f4154;fill-rule:evenodd"/><path d="M639.08,699.48h10.76l17.73-33,21.11.87-20.75,36.42a3,3,0,0,1-2.74,1.74H639.08Z" transform="translate(0.5 0.5)" style="fill:#d84743;fill-rule:evenodd"/><path d="M637.56,699.48H646l19.78-35a3,3,0,0,1,2.62-1.52H686a3,3,0,1,1,0,6H670.12l-19.65,34.74a3,3,0,0,1-2.74,1.74H637.56Z" transform="translate(0.5 0.5)" style="fill:#ec6957;fill-rule:evenodd"/><path d="M622.76,568.82s-3.16,41.21-4,46.11-8,43.87-8.56,46.8-8.77,3.7-8.77,3.7,4.64-38.55,4.69-39.61.16-29.72.16-33.24,4.08-16.38,4.75-17.76S616.17,570.1,622.76,568.82Z" transform="translate(0.5 0.5)" style="fill:#141a33;fill-rule:evenodd"/><path d="M621.9,579.86c-1,12.58-2.59,31.82-3.16,35.07-.16.93-.54,3.06-1.06,5.92,0,0-4.34-32.55-4-33.72S619,576.78,619,576.78Z" transform="translate(0.5 0.5)" style="fill:#3f4154;fill-rule:evenodd"/><path d="M622.76,568.82s-.51,6.72-1.19,15.06c-2.27-3-5.15-7-4.82-7.48.53-.85,4.3-7.18,4.31-7.2C621.61,569.06,622.18,568.93,622.76,568.82Z" transform="translate(0.5 0.5)" style="fill:#575a6d;fill-rule:evenodd"/><path d="M651.23,570c0,.05,2.43,10.43,2.49,11.23,0,.63-11.82,6.9-17,9.58,4.63-11.86,9.46-22.12,9.46-22.12Q648.93,569.34,651.23,570Z" transform="translate(0.5 0.5)" style="fill:#575a6d;fill-rule:evenodd"/><path d="M661.72,574.56a17.67,17.67,0,0,1,6.63,6.3c1.58,2.54,19.69,50.41,20.85,53.52s.61,10.67-3,15c-1.46,1.76-5.78,6.85-10.39,12.26-4.08,4.8-11.37,4.47-17,4.83,4.06-5.71,16.7-23.49,17.38-24.56.81-1.28,1.27-2.55.13-5s-16.63-27.35-16.63-27.35S653.14,582.51,661.72,574.56Z" transform="translate(0.5 0.5)" style="fill:#141a33;fill-rule:evenodd"/><path d="M689.6,640.67a17.38,17.38,0,0,1-3.39,8.74c-1.57,1.9-6.45,7.64-11.44,13.51-.69.8-5,5-8.89,5-.23,0-6.59-1.59-6.88-1.69l3.67-5.16c3.64-.18,12.26-.66,12.68-1.2.54-.69,9.93-10.78,11.79-13.39A16.62,16.62,0,0,0,689.6,640.67Z" transform="translate(0.5 0.5)" style="fill:#030822;fill-rule:evenodd"/><path d="M662.11,613.59h0l-.66-12.16c5.31,8.73,13.18,23.47,14.83,27,3.11,6.59,3.37,10.27,3.37,11.28s-.82.44-1.33.73-3.78,3.9-3.78,3.9c.9-1.28,1.49-2.14,1.63-2.35.81-1.28,1.27-2.55.13-5C675.43,635.2,666.52,620.72,662.11,613.59Z" transform="translate(0.5 0.5)" style="fill:#030822;fill-rule:evenodd"/><path d="M643.13,670.72l.14.08c1,.23,10.17,7.1,18.12,7.2l4.49-10.12a10.05,10.05,0,0,1,.25-11.72c-2.32-12-5.07-26.44-5.62-29.44-.5-2.72,1.18-11.55,3-20.09l-2.12-5.21s-4.45,19.18-5,20.64-7.9.11-8.8.05,6.34,2.73,7.68,3.37,3.73,24.8,3.63,26.83S643.94,670,643.13,670.72Z" transform="translate(0.5 0.5)" style="fill:#030822;fill-rule:evenodd"/><path d="M616.55,570.81a42.63,42.63,0,0,0-10.14,20.78.34.34,0,0,1-.1.16,67.81,67.81,0,0,1,2.18-9.22,41.79,41.79,0,0,1,6.63-11C615.57,571.28,616.05,571,616.55,570.81Z" transform="translate(0.5 0.5)" style="fill:#030822;fill-rule:evenodd"/><path d="M661.93,604.88a.3.3,0,0,1-.29.31.3.3,0,0,1-.31-.3c0-.07-.46-20.77,4.49-27.23l.37.39C661.47,584.16,661.93,604.81,661.93,604.88Z" transform="translate(0.5 0.5)" style="fill:#030822;fill-rule:evenodd"/><rect x="651.65" y="659.91" width="15.33" height="7.79" rx="3.89" style="fill:#f08a71"/><path d="M611.07,524.66a10.69,10.69,0,0,0-1.05,4.18c0,2,4.25,2.83,5.69,2.83s40.5,1.44,40.5,1.44a1.47,1.47,0,0,0,1.21-1.39c0-1.17-6.69-15.78-6.69-15.78Z" transform="translate(0.5 0.5)" style="fill:#2a0d09;fill-rule:evenodd"/><path d="M613,535.18a6.22,6.22,0,1,1-6.22,6.21A6.22,6.22,0,0,1,613,535.18Z" transform="translate(0.5 0.5)" style="fill:#e9695b;fill-rule:evenodd"/><path d="M655.58,535.18a6.22,6.22,0,1,1-6.21,6.21A6.21,6.21,0,0,1,655.58,535.18Z" transform="translate(0.5 0.5)" style="fill:#e9695b;fill-rule:evenodd"/><path d="M632.87,503.74h0A21.35,21.35,0,0,1,654.16,525v19.35a21.35,21.35,0,0,1-21.29,21.3h0a21.35,21.35,0,0,1-21.29-21.3V525A21.35,21.35,0,0,1,632.87,503.74Z" transform="translate(0.5 0.5)" style="fill:#f5ac83;fill-rule:evenodd"/><path d="M641.57,505.61l0,0A21.34,21.34,0,0,1,654.16,525v19.36a21.35,21.35,0,0,1-21.29,21.29h0a21.08,21.08,0,0,1-7.64-1.43c20.83.16,23.13-14,23.13-25.85,0-17.49-19.1-11.2-34.75-11.2-.7,0-1.38,0-2-.05V525a21.37,21.37,0,0,1,.73-5.52c8.41-5.3,20.06-12.16,25.54-13.27l3.52-.71.14.06C641.39,505.62,641.38,505.63,641.57,505.61Z" transform="translate(0.5 0.5)" style="fill:#ee9073;fill-rule:evenodd"/><path d="M651.77,523.83v6.55c0,2.57.46,3.33,1.75,4.27,0,0-.79,2.48.64,3.07a2.25,2.25,0,0,1,2.05-2.22V518.6a8.61,8.61,0,0,1-4.6,3.77A7.42,7.42,0,0,1,651.77,523.83Z" transform="translate(0.5 0.5)" style="fill:#4f3a38;fill-rule:evenodd"/><path d="M657.42,531.72a17.49,17.49,0,0,0-4.86-4h0l-.09,0-.6-.32a12.45,12.45,0,0,1-5-5c-1.78,1.22-9.05,1-11.79.92l-.93-.05H634c-12.17-.49-23.94,2.46-24,5.55-10.54-22.17,15.82-43.51,39.26-19.29C661.68,510.14,660.58,522.86,657.42,531.72Z" transform="translate(0.5 0.5)" style="fill:#4f3a38;fill-rule:evenodd"/><path d="M607.65,517.68a19.88,19.88,0,0,1,3.49-10.39c5.66,3.43,19.33,9.37,34.74-.92.74.62,1.47,1.28,2.2,2C643.12,513.61,630.12,523.78,607.65,517.68Z" transform="translate(0.5 0.5)" style="fill:#6a514f;fill-rule:evenodd"/><path d="M657.42,531.72a17.49,17.49,0,0,0-4.86-4h0l-.09,0-.6-.32a12.45,12.45,0,0,1-5-5c-1.78,1.22-9.05,1-11.79.92l-.93-.05H634c-1.14,0-2.27-.07-3.38,0,15.66-.61,23.13-6.17,26.53-10.24C660.82,517.52,659.62,525.55,657.42,531.72Z" transform="translate(0.5 0.5)" style="fill:#2a0d09;fill-rule:evenodd"/><path d="M638.93,544.33a2.88,2.88,0,1,0,3,2.79A2.87,2.87,0,0,0,638.93,544.33Z" transform="translate(0.5 0.5)" style="fill:#e9695b;fill-rule:evenodd"/><path d="M616.3,545.06a2.89,2.89,0,1,0,3,2.8A2.89,2.89,0,0,0,616.3,545.06Z" transform="translate(0.5 0.5)" style="fill:#e9695b;fill-rule:evenodd"/><path d="M614.2,534.86a.67.67,0,0,1-.89-.25.64.64,0,0,1,.25-.89s3.79-2.26,7.38-.34a.66.66,0,0,1-.62,1.16C617.39,533,614.21,534.85,614.2,534.86Z" transform="translate(0.5 0.5)" style="fill:#00000f;fill-rule:evenodd"/><path d="M640.77,533.46a.66.66,0,0,0,.86-.34.64.64,0,0,0-.33-.86s-4-1.88-7.38.38a.66.66,0,0,0,.73,1.09C637.41,531.88,640.76,533.45,640.77,533.46Z" transform="translate(0.5 0.5)" style="fill:#00000f;fill-rule:evenodd"/><rect x="636.71" y="536.98" width="3.66" height="6.04" rx="1.83" style="fill:#00000f"/><rect x="616.31" y="538.08" width="3.66" height="6.05" rx="1.83" style="fill:#00000f"/><path d="M631.92,549.35a5,5,0,0,1-10,.61h0a.87.87,0,0,1,.81-.92l8.28-.51a.87.87,0,0,1,.92.82Z" transform="translate(0.5 0.5)" style="fill:#00000f;fill-rule:evenodd"/><path d="M630.29,553.36a5,5,0,0,1-3.08,1.3,5,5,0,0,1-2.7-.59,3.36,3.36,0,0,1,5.78-.71Z" transform="translate(0.5 0.5)" style="fill:#d84743;fill-rule:evenodd"/><path d="M622.61,549.05l7.77-.47a1.76,1.76,0,0,1-.73,2c-.69.27-6.33.47-6.76.05A3,3,0,0,1,622.61,549.05Z" transform="translate(0.5 0.5)" style="fill:#fff;fill-rule:evenodd"/><polygon points="507.52 678.9 519.48 829.64 514.17 829.64 498.11 686 408.11 686 392.05 829.64 386.74 829.64 398.7 678.9 507.52 678.9" style="fill:#3f4154;fill-rule:evenodd"/><polygon points="723.66 678.9 735.62 829.64 730.32 829.64 714.25 686 624.25 686 608.19 829.64 602.88 829.64 614.84 678.9 723.66 678.9" style="fill:#3f4154;fill-rule:evenodd"/><path d="M680.15,670.19H394.63a4.59,4.59,0,0,0-4.58,4.58h0a4.58,4.58,0,0,0,4.58,4.57H680.15a4.58,4.58,0,0,0,4.58-4.57h0A4.59,4.59,0,0,0,680.15,670.19Z" transform="translate(0.5 0.5)" style="fill:#f1a272;fill-rule:evenodd"/><path d="M729.15,670.19H608.35a4.59,4.59,0,0,0-4.57,4.58h0a4.58,4.58,0,0,0,4.57,4.57h120.8a4.58,4.58,0,0,0,4.58-4.57h0A4.59,4.59,0,0,0,729.15,670.19Z" transform="translate(0.5 0.5)" style="fill:#c37744;fill-rule:evenodd"/><path d="M308.19,830.56h15.58a5,5,0,0,1,4.93,4.93h0a5,5,0,0,1-4.93,4.93h-7.4a3.92,3.92,0,0,0-3.92,3.91h0a3.93,3.93,0,0,0,3.92,3.92h473a3.93,3.93,0,0,0,3.92-3.92h0a3.92,3.92,0,0,0-3.92-3.91h-7.06a5,5,0,0,1-4.93-4.93h0a5,5,0,0,1,4.93-4.93h30.91a7.85,7.85,0,0,0,7.83-7.83h0a7.85,7.85,0,0,0-7.83-7.83h-505a7.85,7.85,0,0,0-7.83,7.83h0a7.85,7.85,0,0,0,7.83,7.83Zm-2.4,17.69a3.92,3.92,0,1,1,3.91-3.92A3.92,3.92,0,0,1,305.79,848.25Z" transform="translate(0.5 0.5)" style="fill:#00000f;fill-rule:evenodd"/><path d="M550.51,485.61h41.11a5.44,5.44,0,0,1,5.43,5.43v38.29a.6.6,0,0,1-.38.56.58.58,0,0,1-.66-.13l-9.25-9.25H550.51a5.44,5.44,0,0,1-5.42-5.43V491A5.44,5.44,0,0,1,550.51,485.61Z" transform="translate(0.5 0.5)" style="fill:#e9695b;fill-rule:evenodd"/><path d="M559.66,504.94a3.36,3.36,0,1,0-3.35-3.36A3.37,3.37,0,0,0,559.66,504.94Z" transform="translate(0.5 0.5)" style="fill:#fff;fill-rule:evenodd"/><path d="M571.07,504.94a3.36,3.36,0,1,0-3.36-3.36A3.37,3.37,0,0,0,571.07,504.94Z" transform="translate(0.5 0.5)" style="fill:#fff;fill-rule:evenodd"/><path d="M582.47,504.94a3.36,3.36,0,1,0-3.35-3.36A3.36,3.36,0,0,0,582.47,504.94Z" transform="translate(0.5 0.5)" style="fill:#fff;fill-rule:evenodd"/><path d="M439.76,618.76c7-3,8.11,4.8,5,11-2.1,4.17-9.68,14.86-14.79,23.95h-5.82C426.14,639.92,432.53,621.89,439.76,618.76Z" transform="translate(0.5 0.5)" style="fill:#da4848;fill-rule:evenodd"/><path d="M426.23,653.68c5-16.67,16.41-32.37,16.45-32.43a.31.31,0,0,1,.43-.07.3.3,0,0,1,.07.42c0,.07-11.36,15.6-16.32,32.08Z" transform="translate(0.5 0.5)" style="fill:#610419;fill-rule:evenodd"/><path d="M425,594.05c-7.06-6.91-11.88,1.86-10.89,10.67.93,8.35,9.07,37,8.1,49.07H425C431.29,638.34,434,602.91,425,594.05Z" transform="translate(0.5 0.5)" style="fill:#e9695b;fill-rule:evenodd"/><path d="M424,653.79c5.86-24.36-3.56-58-3.59-58.16a.41.41,0,0,0-.48-.29.38.38,0,0,0-.28.47c0,.11,9.47,33.84,3.54,58Z" transform="translate(0.5 0.5)" style="fill:#d84743;fill-rule:evenodd"/><path d="M407.61,609.35c-7.4-3.53-8.82,4.78-5.67,11.51,2.6,5.57,13.71,21.94,18.12,32.55l3.67-.12C423.32,638.43,416.34,613.52,407.61,609.35Z" transform="translate(0.5 0.5)" style="fill:#c8dee1;fill-rule:evenodd"/><path d="M422.39,653.33c-3.36-20-17.93-41.37-18-41.45a.32.32,0,0,0-.45-.09.31.31,0,0,0-.09.45c.05.08,14.52,21.31,17.87,41.12Z" transform="translate(0.5 0.5)" style="fill:#7a9297;fill-rule:evenodd"/><rect x="413.79" y="651.21" width="24.13" height="7.74" rx="1.18" style="fill:#2c3049"/><polygon points="433 655.58 418.71 655.58 414.98 658.95 418.02 670.69 425.85 670.69 433.69 670.69 436.73 658.95 433 655.58" style="fill:#2c3049;fill-rule:evenodd"/><polygon points="414.98 658.95 415.6 661.36 436.11 661.36 436.73 658.95 414.98 658.95" style="fill:#141a33;fill-rule:evenodd"/><path d="M495.84,661.45H466.6a4.37,4.37,0,0,0,0,8.74h29.24a4.37,4.37,0,0,0,0-8.74Z" transform="translate(0.5 0.5)" style="fill:#3b3a3a;fill-rule:evenodd"/><path d="M430.43,662h37.39a3.87,3.87,0,0,1,3.86,3.86h0a3.87,3.87,0,0,1-3.86,3.86H430.43Z" transform="translate(0.5 0.5)" style="fill:#fff;fill-rule:evenodd"/><path d="M430.43,661.45a.51.51,0,0,0,0,1h37.39a3.34,3.34,0,0,1,2.37,5.72,3.38,3.38,0,0,1-2.37,1H430.43a.51.51,0,0,0,0,1h37.39a4.37,4.37,0,0,0,0-8.74Z" transform="translate(0.5 0.5)" style="fill:#242525;fill-rule:evenodd"/><path d="M494.49,665.82a4.37,4.37,0,0,0-4.37-4.37h3.8a4.37,4.37,0,0,1,0,8.74h-3.8a4.37,4.37,0,0,0,4.37-4.37Z" transform="translate(0.5 0.5)" style="fill:#242525;fill-rule:evenodd"/><path d="M489,665.82a4.37,4.37,0,0,0-4.37-4.37h3.8a4.37,4.37,0,0,1,0,8.74h-3.8a4.37,4.37,0,0,0,4.37-4.37Z" transform="translate(0.5 0.5)" style="fill:#242525;fill-rule:evenodd"/><path d="M438.12,653.8h25.6a3.83,3.83,0,1,1,0,7.65h-25.6a3.83,3.83,0,0,1,0-7.65Z" transform="translate(0.5 0.5)" style="fill:#c8dee1;fill-rule:evenodd"/><path d="M495.39,654.24H462.65a3.39,3.39,0,0,0-3.38,3.38h0a3.39,3.39,0,0,0,3.38,3.38h32.74Z" transform="translate(0.5 0.5)" style="fill:#fff;fill-rule:evenodd"/><path d="M495.39,653.8a.44.44,0,0,1,.45.44.45.45,0,0,1-.45.45H462.65a2.94,2.94,0,1,0,0,5.87h32.74a.45.45,0,1,1,0,.89H462.65a3.82,3.82,0,0,1-3.83-3.83,3.82,3.82,0,0,1,1.12-2.7,3.86,3.86,0,0,1,2.71-1.12Z" transform="translate(0.5 0.5)" style="fill:#7a9297;fill-rule:evenodd"/><path d="M439.3,657.62a3.82,3.82,0,0,1,3.82-3.82H439.8a3.83,3.83,0,1,0,0,7.65h3.32a3.82,3.82,0,0,1-3.82-3.83Z" transform="translate(0.5 0.5)" style="fill:#7a9297;fill-rule:evenodd"/><path d="M444.12,657.62A3.82,3.82,0,0,1,448,653.8h-3.33a3.83,3.83,0,0,0,0,7.65H448a3.82,3.82,0,0,1-3.83-3.83Z" transform="translate(0.5 0.5)" style="fill:#7a9297;fill-rule:evenodd"/><path d="M500.64,670.19h91.77a2.92,2.92,0,0,0,2.91-2.91h0a2.92,2.92,0,0,0-2.91-2.92H500.64a2.92,2.92,0,0,0-2.91,2.92h0A2.92,2.92,0,0,0,500.64,670.19Z" transform="translate(0.5 0.5)" style="fill:#141a33;fill-rule:evenodd"/><path d="M500.64,670.19h91.77a1.62,1.62,0,1,0,0-2.75H500.64a1.62,1.62,0,1,0,0,2.75Z" transform="translate(0.5 0.5)" style="fill:#030822;fill-rule:evenodd"/><path d="M498.38,664.36h73.39a3.31,3.31,0,0,0,3.35-3.81L569.27,613A4.45,4.45,0,0,0,565,609.2H491.59a3.31,3.31,0,0,0-3.35,3.81l5.85,47.54A4.45,4.45,0,0,0,498.38,664.36Z" transform="translate(0.5 0.5)" style="fill:#030822;fill-rule:evenodd"/><path d="M498.38,664.36h71.23a3.3,3.3,0,0,0,3.34-3.81L567.1,613a4.44,4.44,0,0,0-4.28-3.81H491.59a3.31,3.31,0,0,0-3.35,3.81l5.85,47.54A4.45,4.45,0,0,0,498.38,664.36Z" transform="translate(0.5 0.5)" style="fill:#2c3049;fill-rule:evenodd"/><path d="M502.26,664.36h7.33l57.85-48.56L567.1,613a4.28,4.28,0,0,0-1-2.24l-63.84,53.59Zm55.51-55.16-63.11,53a4.19,4.19,0,0,1-.57-1.62l-.91-7.39,52.38-44Z" transform="translate(0.5 0.5)" style="fill:#3a3f57;fill-rule:evenodd"/><path d="M575.73,670.19h16.68a2.92,2.92,0,0,0,2.91-2.91h0a2.92,2.92,0,0,0-2.91-2.92H575.73a2.92,2.92,0,0,0-2.91,2.92h0A2.92,2.92,0,0,0,575.73,670.19Z" transform="translate(0.5 0.5)" style="fill:#2c3049;fill-rule:evenodd"/><rect x="498.23" y="663.4" width="79.27" height="2.91" rx="1.46" style="fill:#00000f"/><path d="M529.1,629.45a8.3,8.3,0,0,1,8.07,7.33,6.49,6.49,0,0,1-6.57,7.33,8.31,8.31,0,0,1-8.08-7.33A6.49,6.49,0,0,1,529.1,629.45Z" transform="translate(0.5 0.5)" style="fill:#242942;fill-rule:evenodd"/><path d="M711.76,661.45H682.52a4.37,4.37,0,0,0,0,8.74h29.24a4.37,4.37,0,0,0,0-8.74Z" transform="translate(0.5 0.5)" style="fill:#3b3a3a;fill-rule:evenodd"/><path d="M646.35,662h37.39a3.87,3.87,0,0,1,3.86,3.86h0a3.87,3.87,0,0,1-3.86,3.86H646.35Z" transform="translate(0.5 0.5)" style="fill:#fff;fill-rule:evenodd"/><path d="M646.35,661.45a.51.51,0,1,0,0,1h37.39a3.34,3.34,0,0,1,2.37,5.72,3.38,3.38,0,0,1-2.37,1H646.35a.51.51,0,0,0,0,1h37.39a4.37,4.37,0,0,0,0-8.74Z" transform="translate(0.5 0.5)" style="fill:#242525;fill-rule:evenodd"/><path d="M710.41,665.82a4.37,4.37,0,0,0-4.37-4.37h3.8a4.37,4.37,0,0,1,0,8.74H706a4.37,4.37,0,0,0,4.37-4.37Z" transform="translate(0.5 0.5)" style="fill:#242525;fill-rule:evenodd"/><path d="M704.9,665.82a4.37,4.37,0,0,0-4.37-4.37h3.8a4.37,4.37,0,0,1,0,8.74h-3.8a4.37,4.37,0,0,0,4.37-4.37Z" transform="translate(0.5 0.5)" style="fill:#242525;fill-rule:evenodd"/><path d="M654,653.8h25.6a3.86,3.86,0,0,1,2.71,1.12,3.83,3.83,0,0,1,0,5.41,3.86,3.86,0,0,1-2.71,1.12H654a3.83,3.83,0,0,1,0-7.65Z" transform="translate(0.5 0.5)" style="fill:#c8dee1;fill-rule:evenodd"/><path d="M711.31,654.24H678.57a3.39,3.39,0,0,0-3.38,3.38h0a3.39,3.39,0,0,0,3.38,3.38h32.74Z" transform="translate(0.5 0.5)" style="fill:#fff;fill-rule:evenodd"/><path d="M711.31,653.8a.44.44,0,0,1,.45.44.45.45,0,0,1-.45.45H678.57a2.94,2.94,0,1,0,0,5.87h32.74a.45.45,0,1,1,0,.89H678.57a3.82,3.82,0,0,1-3.83-3.83,3.82,3.82,0,0,1,1.12-2.7,3.86,3.86,0,0,1,2.71-1.12Z" transform="translate(0.5 0.5)" style="fill:#7a9297;fill-rule:evenodd"/><path d="M655.22,657.62A3.82,3.82,0,0,1,659,653.8h-3.32a3.83,3.83,0,1,0,0,7.65H659a3.82,3.82,0,0,1-3.82-3.83Z" transform="translate(0.5 0.5)" style="fill:#7a9297;fill-rule:evenodd"/><path d="M660,657.62a3.82,3.82,0,0,1,3.83-3.82h-3.33a3.83,3.83,0,1,0,0,7.65h3.33a3.82,3.82,0,0,1-3.83-3.83Z" transform="translate(0.5 0.5)" style="fill:#7a9297;fill-rule:evenodd"/><path d="M701.37,646.14h-19a3.82,3.82,0,0,0-2.7,1.12A3.86,3.86,0,0,0,678.5,650a3.84,3.84,0,0,0,3.82,3.83h19a3.83,3.83,0,0,0,0-7.66Z" transform="translate(0.5 0.5)" style="fill:#e9695b;fill-rule:evenodd"/><path d="M660.54,646.59H683.4a3.39,3.39,0,0,1,3.38,3.38h0a3.39,3.39,0,0,1-3.38,3.38H660.54Z" transform="translate(0.5 0.5)" style="fill:#fff;fill-rule:evenodd"/><path d="M660.54,646.14a.45.45,0,1,0,0,.89H683.4a2.88,2.88,0,0,1,2.07.87,2.93,2.93,0,0,1-2.07,5H660.54a.45.45,0,0,0,0,.9H683.4a3.83,3.83,0,0,0,2.7-1.13,3.79,3.79,0,0,0,1.13-2.7,3.84,3.84,0,0,0-3.83-3.83Z" transform="translate(0.5 0.5)" style="fill:#f08a71;fill-rule:evenodd"/><path d="M700.19,650a3.84,3.84,0,0,0-3.83-3.83h3.33a3.83,3.83,0,0,1,0,7.66h-3.33a3.83,3.83,0,0,0,2.7-1.13A3.79,3.79,0,0,0,700.19,650Z" transform="translate(0.5 0.5)" style="fill:#f08a71;fill-rule:evenodd"/><path d="M695.36,650a3.86,3.86,0,0,0-1.12-2.71,3.82,3.82,0,0,0-2.7-1.12h3.33a3.82,3.82,0,0,1,2.7,1.12,3.86,3.86,0,0,1,1.12,2.71,3.84,3.84,0,0,1-3.82,3.83h-3.33a3.84,3.84,0,0,0,3.82-3.83Z" transform="translate(0.5 0.5)" style="fill:#f08a71;fill-rule:evenodd"/><rect x="567.52" y="796.06" width="12.63" height="17.34" rx="1.83" style="fill:#d84743"/><path d="M582.73,817v-8.07c0-1.26-1-2.18-1-3.94v-5.47c0-.61-.94-1.43-1.37-1.64s-3.1.25-5,1.52c0,0-1.11.47-1.11,3.05v6.84c0,1.45-1.24,1.8-2.21,1.8h-1.17c-.74,0-1.85-.18-1.85-2.18v-7.59a5.65,5.65,0,0,0-2-3.42c-.55-.38-2,.6-2.3,1a2.24,2.24,0,0,0-.54,1.69v9.23c0,1-2.33,2.6-2.33,5.13v2.75a2.39,2.39,0,0,0,.41,1.34,3.87,3.87,0,0,1,.34.74h19.09A3.42,3.42,0,0,0,582.73,817Z" transform="translate(0.5 0.5)" style="fill:#ec6957;fill-rule:evenodd"/><path d="M582.73,817v-8.07c0-1.26-1-2.18-1-3.94v-5.47c0-.61-.94-1.43-1.37-1.64a6.14,6.14,0,0,0-2.89.49h0A10.64,10.64,0,0,1,579,799.9c.16.36,0,3.59,0,5.34s1.17,2.91,1.17,3.39v2.77a3.51,3.51,0,0,1-3.8,3.59c-3-.2-2.55-2.08-6.43-2.08h-6a1.6,1.6,0,0,1-1.38-.56,4.89,4.89,0,0,0-.81,2.57v2.75a2.39,2.39,0,0,0,.41,1.34,3.87,3.87,0,0,1,.34.74h19.09A3.42,3.42,0,0,0,582.73,817Z" transform="translate(0.5 0.5)" style="fill:#ea5a50;fill-rule:evenodd"/><path d="M582.73,817s1.17.64,1.37.78a19.86,19.86,0,0,1,.15,3.42,4.29,4.29,0,0,1-1.25,1.92,1.92,1.92,0,0,1-1.09.34H562.44a.94.94,0,0,1-1-.92v-2.61c0-.45.75-.93.75-.93a3.65,3.65,0,0,0,3.38-.19c1.52-1.07,3-1.88,5-1.2S579.34,821.32,582.73,817Z" transform="translate(0.5 0.5)" style="fill:#fff;fill-rule:evenodd"/><path d="M582.73,817s1.17.64,1.37.78a19.86,19.86,0,0,1,.15,3.42,4.29,4.29,0,0,1-1.25,1.92,1.92,1.92,0,0,1-1.09.34H569.16l-2.5-.77h12.1c1.58,0,2.43-.55,2.43-1.1v-2.33a.92.92,0,0,0-.42-.66A5.66,5.66,0,0,0,582.73,817Z" transform="translate(0.5 0.5)" style="fill:#f2dddc;fill-rule:evenodd"/><path d="M572.83,821.65a19.71,19.71,0,0,0,4.64,1.82h-15a.94.94,0,0,1-1-.92v-.43a3.44,3.44,0,0,0,3.39-.2C566.28,820.78,569.12,819.75,572.83,821.65Z" transform="translate(0.5 0.5)" style="fill:#00000f;fill-rule:evenodd"/><path d="M567.7,800.79a.37.37,0,0,1-.28-.49.48.48,0,0,1,.59-.23l7.62,2.33a.39.39,0,0,1,.28.5.48.48,0,0,1-.59.23Z" transform="translate(0.5 0.5)" style="fill:#fff;fill-rule:evenodd"/><path d="M567.7,804.56a.38.38,0,0,1-.28-.5.48.48,0,0,1,.59-.23l7.62,2.34a.37.37,0,0,1,.28.49.48.48,0,0,1-.59.23Z" transform="translate(0.5 0.5)" style="fill:#fff;fill-rule:evenodd"/><path d="M567.7,808.32a.38.38,0,0,1-.28-.5.49.49,0,0,1,.59-.23l7.62,2.34a.37.37,0,0,1,.28.49.5.5,0,0,1-.59.24Z" transform="translate(0.5 0.5)" style="fill:#fff;fill-rule:evenodd"/><path d="M575.32,800.07a.48.48,0,0,1,.59.23.37.37,0,0,1-.28.49L568,803.13a.48.48,0,0,1-.59-.23.38.38,0,0,1,.28-.5Z" transform="translate(0.5 0.5)" style="fill:#fff;fill-rule:evenodd"/><path d="M575.32,803.83a.48.48,0,0,1,.59.23.38.38,0,0,1-.28.5L568,806.89a.48.48,0,0,1-.59-.23.37.37,0,0,1,.28-.49Z" transform="translate(0.5 0.5)" style="fill:#fff;fill-rule:evenodd"/><path d="M575.32,807.59a.49.49,0,0,1,.59.23.38.38,0,0,1-.28.5L568,810.66a.5.5,0,0,1-.59-.24.37.37,0,0,1,.28-.49Z" transform="translate(0.5 0.5)" style="fill:#fff;fill-rule:evenodd"/><rect x="0.5" y="0.5" width="1920" height="1080" style="fill:none;stroke:#fff;stroke-miterlimit:10"/></svg>