<?xml version="1.0" encoding="utf-8"?>
<!-- Generator: Adobe Illustrator 23.0.1, SVG Export Plug-In . SVG Version: 6.00 Build 0)  -->
<svg version="1.1" id="Layer_1" xmlns="http://www.w3.org/2000/svg" xmlns:xlink="http://www.w3.org/1999/xlink" x="0px" y="0px"
	 viewBox="0 0 280 150" style="enable-background:new 0 0 280 150;" xml:space="preserve">
<style type="text/css">
	.st0{fill:#A7A9AC;}
</style>
<g>
	<path class="st0" d="M8.57,41.3H7.15c-0.41-3.11-1.34-4.67-2.81-4.67H2.52v4.67h-1.4V30.77c1.08-0.19,2.05-0.29,2.91-0.29
		c1.28,0,2.29,0.27,3.04,0.81c0.75,0.54,1.13,1.27,1.13,2.2c0,1.23-0.59,2.11-1.76,2.65c0.56,0.38,0.99,0.92,1.3,1.65
		C8.05,38.5,8.32,39.67,8.57,41.3z M6.81,33.56c0-1.25-0.93-1.87-2.8-1.87c-0.6,0-1.1,0.02-1.49,0.07v3.7h1.74
		C5.96,35.46,6.81,34.83,6.81,33.56z"/>
	<path class="st0" d="M16.34,41.23l-1.31,0.27l-0.22-0.97c-0.77,0.65-1.64,0.97-2.6,0.97c-0.77,0-1.41-0.21-1.92-0.62
		c-0.51-0.41-0.78-0.97-0.79-1.67c0-1.9,1.71-2.87,5.14-2.92c-0.15-1.14-0.77-1.71-1.85-1.71c-0.81,0-1.71,0.19-2.68,0.56
		l-0.16-1.29c1.02-0.3,1.99-0.45,2.91-0.45c2.12,0,3.18,1.1,3.18,3.29v2.55C16.03,39.82,16.13,40.48,16.34,41.23z M14.63,38.87
		v-1.36c-2.46,0.05-3.7,0.57-3.7,1.57c0,0.8,0.45,1.2,1.34,1.2c0.5,0,1-0.12,1.5-0.36C14.34,39.63,14.63,39.28,14.63,38.87z"/>
	<path class="st0" d="M19.88,40.89c0,2.33-1.21,3.52-3.63,3.58l-0.16-1.15c1.02-0.08,1.68-0.3,1.96-0.68
		c0.29-0.38,0.43-1.16,0.43-2.34v-6.67h1.4V40.89z M20.26,31.38c0,0.3-0.11,0.56-0.32,0.77c-0.21,0.21-0.47,0.32-0.77,0.32
		c-0.3,0-0.56-0.1-0.77-0.32s-0.32-0.47-0.32-0.77c0-0.3,0.1-0.56,0.32-0.77c0.21-0.21,0.47-0.32,0.77-0.32
		c0.3,0,0.56,0.1,0.77,0.32C20.16,30.82,20.26,31.08,20.26,31.38z"/>
	<path class="st0" d="M28.47,41.23l-1.31,0.27l-0.22-0.97c-0.77,0.65-1.64,0.97-2.6,0.97c-0.77,0-1.41-0.21-1.92-0.62
		c-0.51-0.41-0.78-0.97-0.79-1.67c0-1.9,1.71-2.87,5.14-2.92c-0.15-1.14-0.77-1.71-1.85-1.71c-0.81,0-1.71,0.19-2.68,0.56
		l-0.16-1.29c1.02-0.3,1.99-0.45,2.91-0.45c2.12,0,3.18,1.1,3.18,3.29v2.55C28.15,39.82,28.26,40.48,28.47,41.23z M26.76,38.87
		v-1.36c-2.46,0.05-3.7,0.57-3.7,1.57c0,0.8,0.45,1.2,1.34,1.2c0.5,0,1-0.12,1.5-0.36C26.47,39.63,26.76,39.28,26.76,38.87z"/>
	<path class="st0" d="M42.49,41.3h-1.4v-4.22c0-0.69-0.16-1.26-0.48-1.71c-0.36-0.49-0.84-0.74-1.43-0.74
		c-0.5,0-0.96,0.19-1.39,0.58c-0.43,0.39-0.65,0.81-0.65,1.26v4.83h-1.4v-4.61c0-1.38-0.58-2.07-1.75-2.07
		c-0.51,0-1.01,0.23-1.47,0.69s-0.7,0.93-0.7,1.43v4.56h-1.4v-5.64c0-0.93-0.06-1.62-0.18-2.05h1.31c0.1,0.26,0.15,0.56,0.15,0.9
		c0.21-0.31,0.56-0.57,1.04-0.78c0.48-0.21,0.95-0.32,1.42-0.32c0.99,0,1.79,0.42,2.39,1.26c0.8-0.84,1.76-1.26,2.89-1.26
		c0.89,0,1.62,0.33,2.19,1c0.57,0.67,0.86,1.54,0.86,2.63V41.3z"/>
	<path class="st0" d="M51.08,41.23l-1.31,0.27l-0.22-0.97c-0.77,0.65-1.64,0.97-2.6,0.97c-0.77,0-1.41-0.21-1.92-0.62
		c-0.51-0.41-0.78-0.97-0.79-1.67c0-1.9,1.71-2.87,5.14-2.92c-0.15-1.14-0.77-1.71-1.85-1.71c-0.81,0-1.71,0.19-2.68,0.56
		l-0.16-1.29c1.02-0.3,1.99-0.45,2.91-0.45c2.12,0,3.18,1.1,3.18,3.29v2.55C50.77,39.82,50.87,40.48,51.08,41.23z M49.37,38.87
		v-1.36c-2.46,0.05-3.7,0.57-3.7,1.57c0,0.8,0.45,1.2,1.34,1.2c0.5,0,1-0.12,1.5-0.36C49.08,39.63,49.37,39.28,49.37,38.87z"/>
	<path class="st0" d="M60.32,41.3h-1.4v-4.34c0-1.56-0.72-2.34-2.16-2.34c-0.53,0-1.05,0.24-1.56,0.71
		c-0.51,0.47-0.76,0.94-0.76,1.4v4.56h-1.4v-5.64c0-0.93-0.06-1.62-0.18-2.05h1.31c0.1,0.26,0.15,0.58,0.15,0.95
		c0.72-0.77,1.6-1.15,2.63-1.15c1.03,0,1.84,0.32,2.46,0.95c0.61,0.63,0.92,1.5,0.92,2.59V41.3z"/>
	<path class="st0" d="M68.03,42.31c0,0.71-0.26,1.28-0.77,1.71s-1.25,0.65-2.23,0.65c-0.81,0-1.65-0.26-2.5-0.78l0.5-1.14
		c0.8,0.47,1.5,0.7,2.1,0.7c0.47,0,0.85-0.11,1.16-0.32s0.46-0.47,0.46-0.77c0-0.45-0.42-0.84-1.26-1.18
		c-0.63-0.26-1.24-0.54-1.83-0.86c-0.59-0.32-0.88-0.73-0.88-1.24c0-0.24,0.07-0.55,0.2-0.92c-0.54-0.59-0.81-1.21-0.81-1.87
		c0-0.83,0.28-1.5,0.83-2.03c0.56-0.53,1.22-0.79,2.01-0.79h3.25v0.97h-1.13c0.27,0.1,0.49,0.35,0.65,0.74
		c0.14,0.32,0.2,0.63,0.2,0.95c0,0.89-0.24,1.59-0.73,2.11s-1.19,0.78-2.11,0.78c-0.33,0-0.65-0.05-0.97-0.16
		c-0.08,0.08-0.11,0.17-0.11,0.29c0,0.23,0.54,0.49,1.62,0.79C67.25,40.38,68.03,41.17,68.03,42.31z M66.79,36.25
		c0-0.45-0.16-0.83-0.48-1.15c-0.32-0.32-0.71-0.47-1.16-0.47c-0.45,0-0.84,0.16-1.16,0.47c-0.32,0.32-0.48,0.7-0.48,1.15
		c0,0.45,0.16,0.83,0.48,1.14c0.32,0.31,0.71,0.46,1.16,0.46c0.54,0,0.95-0.15,1.23-0.46C66.65,37.08,66.79,36.7,66.79,36.25z"/>
	<path class="st0" d="M76.37,41.23l-1.31,0.27l-0.22-0.97c-0.77,0.65-1.64,0.97-2.6,0.97c-0.77,0-1.41-0.21-1.92-0.62
		c-0.51-0.41-0.78-0.97-0.79-1.67c0-1.9,1.71-2.87,5.14-2.92c-0.15-1.14-0.77-1.71-1.85-1.71c-0.81,0-1.71,0.19-2.68,0.56
		l-0.16-1.29c1.02-0.3,1.99-0.45,2.91-0.45c2.12,0,3.18,1.1,3.18,3.29v2.55C76.06,39.82,76.16,40.48,76.37,41.23z M74.66,38.87
		v-1.36c-2.46,0.05-3.7,0.57-3.7,1.57c0,0.8,0.45,1.2,1.34,1.2c0.5,0,1-0.12,1.5-0.36C74.37,39.63,74.66,39.28,74.66,38.87z"/>
	<path class="st0" d="M81.67,41.48c-2.22-0.12-3.34-1.5-3.34-4.13v-7.42h1.4v7.1c0,1.16,0.18,1.98,0.54,2.46
		c0.32,0.41,0.83,0.64,1.56,0.7L81.67,41.48z"/>
	<path class="st0" d="M89.45,41.23l-1.31,0.27l-0.22-0.97c-0.77,0.65-1.64,0.97-2.6,0.97c-0.77,0-1.41-0.21-1.92-0.62
		c-0.51-0.41-0.78-0.97-0.79-1.67c0-1.9,1.71-2.87,5.14-2.92c-0.15-1.14-0.77-1.71-1.85-1.71c-0.81,0-1.71,0.19-2.68,0.56
		l-0.16-1.29c1.02-0.3,1.99-0.45,2.91-0.45c2.12,0,3.18,1.1,3.18,3.29v2.55C89.13,39.82,89.24,40.48,89.45,41.23z M87.73,38.87
		v-1.36c-2.46,0.05-3.7,0.57-3.7,1.57c0,0.8,0.45,1.2,1.34,1.2c0.5,0,1-0.12,1.5-0.36C87.45,39.63,87.73,39.28,87.73,38.87z"/>
	<path class="st0" d="M105.12,36.72c0,3.19-1.44,4.78-4.31,4.78c-2.87,0-4.31-1.59-4.31-4.78v-6.15h1.44v6.15
		c0,2.37,0.95,3.56,2.86,3.56c1.91,0,2.86-1.19,2.86-3.56v-6.15h1.44V36.72z"/>
	<path class="st0" d="M114.65,41.3h-1.4v-4.34c0-1.56-0.72-2.34-2.16-2.34c-0.53,0-1.05,0.24-1.56,0.71
		c-0.51,0.47-0.76,0.94-0.76,1.4v4.56h-1.4v-5.64c0-0.93-0.06-1.62-0.18-2.05h1.31c0.1,0.26,0.15,0.58,0.15,0.95
		c0.72-0.77,1.6-1.15,2.63-1.15c1.03,0,1.84,0.32,2.46,0.95c0.61,0.63,0.92,1.5,0.92,2.59V41.3z"/>
	<path class="st0" d="M118.66,31.38c0,0.3-0.11,0.56-0.32,0.77s-0.47,0.32-0.77,0.32s-0.56-0.1-0.77-0.32
		c-0.21-0.21-0.32-0.47-0.32-0.77c0-0.3,0.1-0.56,0.32-0.77c0.21-0.21,0.47-0.32,0.77-0.32s0.56,0.1,0.77,0.32
		C118.56,30.82,118.66,31.08,118.66,31.38z M118.3,41.3h-1.4v-7.66h1.4V41.3z"/>
	<path class="st0" d="M124.05,41.3h-1.13l-3.56-7.66h1.49l2.64,5.91l2.64-5.91h1.49L124.05,41.3z"/>
	<path class="st0" d="M135.44,40.89c-1.1,0.41-2.14,0.61-3.13,0.61c-1.22,0-2.22-0.36-3.01-1.09c-0.79-0.73-1.18-1.67-1.18-2.83
		c0-1.28,0.39-2.31,1.17-3.11c0.77-0.75,1.74-1.13,2.93-1.13c2.31,0,3.49,1.45,3.54,4.35h-6.24c0.06,0.81,0.35,1.44,0.87,1.88
		c0.52,0.44,1.19,0.67,2.02,0.67c0.84,0,1.8-0.2,2.89-0.59L135.44,40.89z M134.35,36.47c-0.08-0.58-0.32-1.05-0.72-1.42
		c-0.41-0.36-0.92-0.55-1.56-0.55c-0.6,0-1.14,0.18-1.61,0.55c-0.47,0.36-0.76,0.84-0.87,1.42H134.35z"/>
	<path class="st0" d="M138.86,41.3h-1.4v-5.07c0-1.2-0.09-2.1-0.27-2.71h1.25c0.16,0.27,0.24,0.62,0.24,1.06
		c0.13-0.28,0.41-0.55,0.84-0.8c0.43-0.25,0.85-0.38,1.27-0.38c0.3,0,0.54,0.02,0.72,0.07v1.19c-0.12-0.03-0.29-0.04-0.52-0.04
		c-1.43,0-2.14,0.86-2.14,2.58V41.3z"/>
	<path class="st0" d="M147.99,39.11c0,0.71-0.27,1.28-0.82,1.72s-1.29,0.67-2.22,0.67c-0.77,0-1.59-0.24-2.48-0.73l0.56-1.12
		c0.62,0.42,1.28,0.63,1.98,0.63c1.05,0,1.58-0.36,1.58-1.09c0-0.56-0.51-1-1.53-1.32c-1.5-0.47-2.25-1.18-2.25-2.14
		c0-0.65,0.25-1.19,0.76-1.63c0.5-0.44,1.18-0.67,2.04-0.67c0.87,0,1.61,0.22,2.21,0.65l-0.52,1.04c-0.53-0.39-1.12-0.59-1.78-0.59
		c-0.39,0-0.72,0.1-0.98,0.3c-0.26,0.2-0.39,0.46-0.39,0.78c0,0.39,0.55,0.77,1.65,1.15C147.25,37.28,147.99,38.06,147.99,39.11z"/>
	<path class="st0" d="M151.44,31.38c0,0.3-0.11,0.56-0.32,0.77c-0.21,0.21-0.47,0.32-0.77,0.32c-0.3,0-0.56-0.1-0.77-0.32
		c-0.21-0.21-0.32-0.47-0.32-0.77c0-0.3,0.1-0.56,0.32-0.77c0.21-0.21,0.47-0.32,0.77-0.32c0.3,0,0.56,0.1,0.77,0.32
		C151.33,30.82,151.44,31.08,151.44,31.38z M151.08,41.3h-1.4v-7.66h1.4V41.3z"/>
	<path class="st0" d="M157.66,41.18c-0.5,0.21-0.99,0.32-1.49,0.32c-0.69,0-1.23-0.23-1.62-0.7c-0.39-0.47-0.59-1.1-0.59-1.92V34.8
		h-1.53v-1.17h1.53v-2.1l1.4-0.61v2.71h2.46v1.17h-2.46v4.06c0,0.92,0.29,1.38,0.88,1.38c0.38,0,0.8-0.08,1.26-0.25L157.66,41.18z"
		/>
	<path class="st0" d="M158.77,44.7l-0.36-1.17c1.34-0.3,2.32-1.23,2.95-2.8l-3.4-7.1h1.55l2.66,5.68l2.53-5.68h1.56l-3.52,7.51
		C161.79,43.14,160.46,44.32,158.77,44.7z"/>
	<path class="st0" d="M179.98,37.42c0,1.14-0.38,2.1-1.15,2.89s-1.74,1.17-2.91,1.17c-1.17,0-2.14-0.39-2.91-1.17
		c-0.77-0.78-1.15-1.74-1.15-2.89s0.38-2.11,1.15-2.9c0.77-0.79,1.74-1.18,2.91-1.18c1.17,0,2.14,0.39,2.91,1.18
		S179.98,36.28,179.98,37.42z M178.58,37.41c0-0.81-0.25-1.49-0.74-2.03c-0.5-0.55-1.14-0.82-1.92-0.82s-1.42,0.27-1.92,0.82
		c-0.5,0.55-0.74,1.22-0.74,2.03c0,0.81,0.25,1.49,0.74,2.03s1.13,0.82,1.92,0.82s1.42-0.27,1.92-0.82
		C178.33,38.89,178.58,38.22,178.58,37.41z"/>
	<path class="st0" d="M183.63,41.3h-1.4V34.8h-1.29v-1.17h1.31c0-2.57,0.99-3.85,2.98-3.85c0.63,0,1.17,0.17,1.6,0.5l-0.41,1.06
		c-0.53-0.23-0.94-0.34-1.24-0.34c-1.04,0-1.56,0.88-1.56,2.64h2.19v1.17h-2.19V41.3z"/>
	<path class="st0" d="M196.84,41.3h-1.4v-9.51h-3.97v-1.22h9.29v1.22h-3.92V41.3z"/>
	<path class="st0" d="M208.11,40.89c-1.1,0.41-2.14,0.61-3.13,0.61c-1.22,0-2.22-0.36-3.01-1.09c-0.79-0.73-1.18-1.67-1.18-2.83
		c0-1.28,0.39-2.31,1.17-3.11c0.77-0.75,1.74-1.13,2.93-1.13c2.31,0,3.49,1.45,3.54,4.35h-6.25c0.06,0.81,0.35,1.44,0.87,1.88
		c0.52,0.44,1.19,0.67,2.02,0.67c0.84,0,1.8-0.2,2.89-0.59L208.11,40.89z M207.03,36.47c-0.08-0.58-0.32-1.05-0.72-1.42
		c-0.41-0.36-0.92-0.55-1.56-0.55c-0.6,0-1.14,0.18-1.61,0.55c-0.47,0.36-0.76,0.84-0.87,1.42H207.03z"/>
	<path class="st0" d="M216.27,40.81c-0.72,0.46-1.6,0.69-2.64,0.69c-1.22,0-2.19-0.38-2.93-1.14c-0.74-0.76-1.1-1.74-1.1-2.94
		c0-1.22,0.37-2.2,1.1-2.95s1.71-1.13,2.93-1.13c1.02,0,1.9,0.23,2.64,0.69l-0.5,1.18c-0.71-0.44-1.44-0.65-2.19-0.65
		c-0.77,0-1.38,0.26-1.85,0.79s-0.7,1.22-0.7,2.07c0,0.87,0.23,1.56,0.7,2.08c0.47,0.52,1.08,0.78,1.85,0.78
		c0.75,0,1.48-0.22,2.19-0.65L216.27,40.81z"/>
	<path class="st0" d="M225.24,41.3h-1.4v-4.31c0-0.68-0.19-1.24-0.56-1.68c-0.37-0.44-0.88-0.67-1.51-0.67s-1.2,0.23-1.68,0.68
		c-0.49,0.45-0.73,0.95-0.73,1.49v4.49h-1.4V29.93h1.4v4.53c0.69-0.69,1.56-1.04,2.6-1.04c1.03,0,1.83,0.32,2.41,0.96
		c0.58,0.64,0.87,1.5,0.87,2.58V41.3z"/>
	<path class="st0" d="M234.78,41.3h-1.4v-4.34c0-1.56-0.72-2.34-2.16-2.34c-0.53,0-1.05,0.24-1.56,0.71
		c-0.51,0.47-0.76,0.94-0.76,1.4v4.56h-1.4v-5.64c0-0.93-0.06-1.62-0.18-2.05h1.31c0.1,0.26,0.16,0.58,0.16,0.95
		c0.72-0.77,1.6-1.15,2.63-1.15s1.84,0.32,2.46,0.95c0.61,0.63,0.92,1.5,0.92,2.59V41.3z"/>
	<path class="st0" d="M244.61,37.42c0,1.14-0.38,2.1-1.15,2.89s-1.74,1.17-2.91,1.17c-1.17,0-2.14-0.39-2.91-1.17
		c-0.77-0.78-1.15-1.74-1.15-2.89s0.38-2.11,1.15-2.9c0.77-0.79,1.74-1.18,2.91-1.18c1.17,0,2.14,0.39,2.91,1.18
		S244.61,36.28,244.61,37.42z M243.21,37.41c0-0.81-0.25-1.49-0.74-2.03c-0.5-0.55-1.14-0.82-1.92-0.82s-1.42,0.27-1.92,0.82
		c-0.5,0.55-0.74,1.22-0.74,2.03c0,0.81,0.25,1.49,0.74,2.03s1.13,0.82,1.92,0.82s1.42-0.27,1.92-0.82
		C242.96,38.89,243.21,38.22,243.21,37.41z"/>
	<path class="st0" d="M249.66,41.48c-2.22-0.12-3.34-1.5-3.34-4.13v-7.42h1.4v7.1c0,1.16,0.18,1.98,0.54,2.46
		c0.32,0.41,0.83,0.64,1.56,0.7L249.66,41.48z"/>
	<path class="st0" d="M258.7,37.42c0,1.14-0.38,2.1-1.15,2.89s-1.74,1.17-2.91,1.17c-1.17,0-2.14-0.39-2.91-1.17
		c-0.77-0.78-1.15-1.74-1.15-2.89s0.38-2.11,1.15-2.9c0.77-0.79,1.74-1.18,2.91-1.18c1.17,0,2.14,0.39,2.91,1.18
		S258.7,36.28,258.7,37.42z M257.3,37.41c0-0.81-0.25-1.49-0.74-2.03c-0.5-0.55-1.14-0.82-1.92-0.82s-1.42,0.27-1.92,0.82
		c-0.5,0.55-0.74,1.22-0.74,2.03c0,0.81,0.25,1.49,0.74,2.03s1.13,0.82,1.92,0.82s1.42-0.27,1.92-0.82
		C257.05,38.89,257.3,38.22,257.3,37.41z"/>
	<path class="st0" d="M265.87,42.31c0,0.71-0.26,1.28-0.77,1.71c-0.51,0.44-1.25,0.65-2.23,0.65c-0.81,0-1.65-0.26-2.5-0.78
		l0.5-1.14c0.8,0.47,1.5,0.7,2.1,0.7c0.47,0,0.85-0.11,1.16-0.32c0.31-0.22,0.46-0.47,0.46-0.77c0-0.45-0.42-0.84-1.26-1.18
		c-0.63-0.26-1.24-0.54-1.83-0.86c-0.59-0.32-0.88-0.73-0.88-1.24c0-0.24,0.07-0.55,0.2-0.92c-0.54-0.59-0.81-1.21-0.81-1.87
		c0-0.83,0.28-1.5,0.83-2.03c0.56-0.53,1.22-0.79,2.01-0.79h3.25v0.97h-1.13c0.27,0.1,0.49,0.35,0.65,0.74
		c0.13,0.32,0.2,0.63,0.2,0.95c0,0.89-0.24,1.59-0.73,2.11s-1.19,0.78-2.11,0.78c-0.33,0-0.65-0.05-0.97-0.16
		c-0.08,0.08-0.11,0.17-0.11,0.29c0,0.23,0.54,0.49,1.62,0.79C265.08,40.38,265.87,41.17,265.87,42.31z M264.63,36.25
		c0-0.45-0.16-0.83-0.48-1.15c-0.32-0.32-0.71-0.47-1.16-0.47s-0.84,0.16-1.16,0.47c-0.32,0.32-0.48,0.7-0.48,1.15
		c0,0.45,0.16,0.83,0.48,1.14s0.71,0.46,1.16,0.46c0.54,0,0.95-0.15,1.23-0.46C264.49,37.08,264.63,36.7,264.63,36.25z"/>
	<path class="st0" d="M267.49,44.7l-0.36-1.17c1.34-0.3,2.32-1.23,2.95-2.8l-3.4-7.1h1.55l2.66,5.68l2.53-5.68h1.56l-3.52,7.51
		C270.51,43.14,269.19,44.32,267.49,44.7z"/>
	<path class="st0" d="M18.64,90.14h-4.78v-32.5H0.31v-4.16h31.73v4.16h-13.4V90.14z"/>
	<path class="st0" d="M61.15,90.14h-4.78V75.43c0-2.31-0.64-4.22-1.91-5.74c-1.27-1.51-3-2.27-5.17-2.27s-4.1,0.77-5.76,2.31
		c-1.66,1.54-2.49,3.23-2.49,5.08v15.33h-4.78V51.32h4.78V66.8c2.37-2.36,5.33-3.54,8.89-3.54c3.5,0,6.25,1.09,8.23,3.27
		c1.98,2.18,2.98,5.12,2.98,8.82V90.14z"/>
	<path class="st0" d="M90.42,89.91l-4.49,0.92l-0.76-3.33c-2.63,2.22-5.59,3.33-8.89,3.33c-2.63,0-4.82-0.7-6.57-2.11
		c-1.75-1.41-2.65-3.31-2.71-5.71c0-6.49,5.85-9.81,17.56-9.97c-0.51-3.9-2.62-5.85-6.32-5.85c-2.77,0-5.83,0.64-9.17,1.93
		l-0.54-4.39c3.49-1.03,6.8-1.54,9.94-1.54c7.24,0,10.86,3.75,10.86,11.25v8.7C89.34,85.08,89.7,87.34,90.42,89.91z M84.57,81.86
		V77.2c-8.42,0.16-12.63,1.94-12.63,5.36c0,2.74,1.52,4.12,4.57,4.12c1.7,0,3.41-0.41,5.11-1.24
		C83.59,84.45,84.57,83.26,84.57,81.86z"/>
	<path class="st0" d="M122,90.14h-4.78V75.32c0-5.32-2.46-7.98-7.39-7.98c-1.81,0-3.59,0.81-5.33,2.42
		c-1.74,1.61-2.61,3.21-2.61,4.8v15.58h-4.78V70.88c0-3.18-0.21-5.52-0.62-7.01h4.48c0.35,0.89,0.53,1.97,0.53,3.23
		c2.47-2.62,5.46-3.92,8.97-3.92c3.5,0,6.3,1.08,8.39,3.23c2.09,2.16,3.13,5.11,3.13,8.86V90.14z"/>
	<path class="st0" d="M128.32,101.77l-1.23-4.01c4.57-1.03,7.93-4.21,10.09-9.55l-11.63-24.26h5.31l9.09,19.41l8.63-19.41h5.31
		L141.87,89.6C138.64,96.43,134.12,100.49,128.32,101.77z"/>
	<path class="st0" d="M179.07,89.91l-4.49,0.92l-0.76-3.33c-2.63,2.22-5.59,3.33-8.89,3.33c-2.63,0-4.82-0.7-6.57-2.11
		c-1.75-1.41-2.66-3.31-2.71-5.71c0-6.49,5.85-9.81,17.56-9.97c-0.51-3.9-2.62-5.85-6.32-5.85c-2.77,0-5.83,0.64-9.17,1.93
		l-0.54-4.39c3.49-1.03,6.8-1.54,9.94-1.54c7.24,0,10.86,3.75,10.86,11.25v8.7C177.99,85.08,178.35,87.34,179.07,89.91z
		 M173.22,81.86V77.2c-8.42,0.16-12.63,1.94-12.63,5.36c0,2.74,1.52,4.12,4.57,4.12c1.7,0,3.41-0.41,5.12-1.24
		C172.24,84.45,173.22,83.26,173.22,81.86z"/>
	<path class="st0" d="M213.42,76.51c0,4.16-1.3,7.59-3.9,10.28c-2.6,2.7-5.81,4.04-9.62,4.04s-6.93-1.16-9.35-3.48
		c0,1.3-0.08,2.23-0.23,2.79h-4.54c0.2-2.52,0.31-4.85,0.31-7.01V51.32h4.78l0.08,15.25c2.41-2.41,5.55-3.62,9.4-3.62
		c3.75,0,6.87,1.3,9.36,3.89C212.18,69.43,213.42,72.66,213.42,76.51z M208.65,76.54c0-2.78-0.8-5.08-2.4-6.88
		c-1.6-1.8-3.74-2.71-6.42-2.71c-2.17,0-4.2,0.72-6.11,2.17c-1.91,1.44-2.86,3.14-2.86,5.1v6.03c0,1.96,0.8,3.52,2.4,4.68
		c1.6,1.16,3.69,1.74,6.27,1.74c2.89,0,5.13-0.9,6.73-2.71C207.85,82.16,208.65,79.69,208.65,76.54z"/>
	<path class="st0" d="M245.39,89.83l-4.65,0.92c-0.51-1.23-0.96-2.72-1.36-4.47c-3.09,3.03-6.16,4.54-9.2,4.54
		c-7.27,0-10.9-4.18-10.9-12.55V63.95h4.78v13.86c0,5.8,2.23,8.7,6.69,8.7c1.87,0,3.71-0.71,5.53-2.12
		c1.82-1.41,2.72-3.07,2.72-4.97V63.95h4.78v19.18C243.77,84.88,244.31,87.11,245.39,89.83z"/>
	<path class="st0" d="M256.25,90.14h-4.78V72.81c0-4.11-0.31-7.19-0.92-9.24h4.26c0.56,0.91,0.83,2.11,0.83,3.62
		c0.46-0.96,1.42-1.87,2.88-2.72c1.46-0.86,2.91-1.29,4.35-1.29c1.03,0,1.85,0.08,2.46,0.23v4.08c-0.41-0.1-1-0.15-1.77-0.15
		c-4.88,0-7.32,2.94-7.32,8.81V90.14z"/>
	<path class="st0" d="M276.43,56.25c0,1.03-0.36,1.9-1.08,2.62c-0.72,0.72-1.59,1.08-2.62,1.08c-1.03,0-1.9-0.36-2.62-1.08
		c-0.72-0.72-1.08-1.59-1.08-2.62c0-1.03,0.36-1.9,1.08-2.62c0.72-0.72,1.59-1.08,2.62-1.08c1.03,0,1.9,0.36,2.62,1.08
		C276.07,54.35,276.43,55.22,276.43,56.25z M275.2,90.14h-4.78V63.95h4.78V90.14z"/>
</g>
</svg>
